<svg xmlns="http://www.w3.org/2000/svg" xmlns:xlink="http://www.w3.org/1999/xlink" xmlns:lucid="lucid" width="779.88" height="394.84"><g transform="translate(440.00000000000006 -259)" lucid:page-tab-id="0_0"><path d="M-160 300c0 22.1-17.9 40-40 40s-40-17.9-40-40 17.9-40 40-40 40 17.9 40 40z" stroke="#000" stroke-width="2" fill="#fff"/><path d="M-255.76 438.15a6 6 0 0 1 0-8.48l90.64-90.64a6 6 0 0 1 8.48 0l17.6 17.6a6 6 0 0 1 0 8.5l-90.63 90.63a6 6 0 0 1-8.48 0z" fill="none"/><use xlink:href="#a" transform="matrix(0.7071067811865476,-0.7071067811865475,0.7071067811865475,0.7071067811865476,-252.9289321881345,433.9091592563874) translate(0 21.58376736111111)"/><use xlink:href="#b" transform="matrix(0.7071067811865476,-0.7071067811865475,0.7071067811865475,0.7071067811865476,-252.9289321881345,433.9091592563874) translate(80.06727430555554 21.58376736111111)"/><path d="M-70.4 394.44a6 6 0 0 1 0-8.48l30.2-30.2a6 6 0 0 1 8.5 0l17.6 17.6a6 6 0 0 1 0 8.5l-30.2 30.2a6 6 0 0 1-8.5 0z" fill="none"/><use xlink:href="#c" transform="matrix(0.7071067811865476,-0.7071067811865475,0.7071067811865475,0.7071067811865476,-67.5716561254128,390.20219550824106) translate(0 21.58376736111111)"/><path d="M79.1 412a6 6 0 0 1 0-8.5l65.3-65.3a6 6 0 0 1 8.48 0l17.6 17.6a6 6 0 0 1 0 8.5l-65.3 65.3a6 6 0 0 1-8.5 0z" fill="none"/><use xlink:href="#d" transform="matrix(0.7071067811865476,-0.7071067811865475,0.7071067811865475,0.7071067811865476,81.91444893633775,407.7532671441375) translate(0 21.58376736111111)"/><path d="M244.24 412a6 6 0 0 1 0-8.5l65.3-65.3a6 6 0 0 1 8.5 0l17.6 17.6a6 6 0 0 1 0 8.5l-65.3 65.3a6 6 0 0 1-8.5 0z" fill="none"/><use xlink:href="#d" transform="matrix(0.7071067811865476,-0.7071067811865475,0.7071067811865475,0.7071067811865476,247.07106781186548,407.75326714413757) translate(0 21.58376736111111)"/><path d="M320 300c0 22.1-17.9 40-40 40s-40-17.9-40-40 17.9-40 40-40 40 17.9 40 40zm-68.3-28.3l56.6 56.6m-56.6 0l56.6-56.6M164.78 300c0 22.1-17.9 40-40 40s-40-17.9-40-40 17.9-40 40-40 40 17.9 40 40zM96.5 271.7l56.57 56.6m-56.57 0l56.57-56.6" stroke="#000" stroke-width="2" fill="#fff"/><path d="M-82.25 266a6 6 0 0 1 6-6h68a6 6 0 0 1 6 6v68a6 6 0 0 1-6 6h-68a6 6 0 0 1-6-6z" stroke="#000" stroke-width="2" fill="#c3f7c8"/><path d="M-440 276.8a6 6 0 0 1 6-6h89.92a6 6 0 0 1 6 6v46.4a6 6 0 0 1-6 6H-434a6 6 0 0 1-6-6z" fill="none"/><use xlink:href="#e" transform="matrix(1,0,0,1,-435,275.79578125) translate(0 39.05078125)"/><path d="M-337.08 300h10.57m10.55 0h21.13m10.56 0h21.13m10.56 0H-242" stroke="#3a414a" stroke-width="2" fill="none"/><path d="M-337.05 300.98h-1.03v-1.96h1.03zM-241 300l.03.98h-1.06v-1.96h1.1z" stroke="#3a414a" stroke-width=".05" fill="#3a414a"/><path d="M-158 300h12.3m12.28 0h24.58m12.3 0h12.3" stroke="#3a414a" stroke-width="2" fill="none"/><path d="M-157.97 300.98h-1.1l.07-.97-.03-.98h1.06zM-83.25 300.98h-1.03v-1.96h1.03z" stroke="#3a414a" stroke-width=".05" fill="#3a414a"/><path d="M-.25 300h9.22m9.23 0h18.45m9.23 0h18.45m9.23 0h9.22" stroke="#3a414a" stroke-width="2" fill="none"/><path d="M-.23 300.98h-1.02v-1.96h1.02zM83.78 300l.04.98h-1.06v-1.96h1.08z" stroke="#3a414a" stroke-width=".05" fill="#3a414a"/><path d="M166.78 300h11.87m11.87 0h23.74m11.87 0H238" stroke="#3a414a" stroke-width="2" fill="none"/><path d="M166.8 300.98h-1.07l.06-.97-.05-.98h1.06zM239 300l.03.98h-1.06v-1.96h1.1z" stroke="#3a414a" stroke-width=".05" fill="#3a414a"/><path d="M79.1 632a6 6 0 0 1 0-8.5l65.3-65.3a6 6 0 0 1 8.48 0l17.6 17.6a6 6 0 0 1 0 8.5l-65.3 65.3a6 6 0 0 1-8.5 0z" fill="none"/><use xlink:href="#f" transform="matrix(0.7071067811865476,-0.7071067811865475,0.7071067811865475,0.7071067811865476,81.91444893633775,627.7532671441376) translate(0 21.58376736111111)"/><path d="M-440 496.8a6 6 0 0 1 6-6h53.15a6 6 0 0 1 6 6v46.4a6 6 0 0 1-6 6H-434a6 6 0 0 1-6-6z" fill="none"/><use xlink:href="#g" transform="matrix(1,0,0,1,-435.00000000000006,495.79578125) translate(0 39.05078125)"/><path d="M-373.85 520h10.14m10.14 0h20.3m10.14 0h20.3m10.15 0h20.3m10.14 0h20.3m10.14 0h20.3m10.15 0h20.3m10.15 0h20.3m10.14 0h20.3m10.14 0h20.3m10.14 0h20.3m10.15 0h20.3m10.14 0H1.6m10.15 0h20.3m10.14 0h20.3m10.14 0h10.14" stroke="#3a414a" stroke-width="2" fill="none"/><path d="M-373.83 520.98h-1.02V519h1.02zM83.78 520l.04.98h-1.06V519h1.08z" stroke="#3a414a" stroke-width=".05" fill="#3a414a"/><path d="M166.78 520h11.87m11.87 0h23.74m11.87 0H238" stroke="#3a414a" stroke-width="2" fill="none"/><path d="M166.8 520.98h-1.07l.06-.97-.05-.98h1.06z" stroke="#3a414a" stroke-width=".05" fill="#3a414a"/><path d="M237.97 520H239" stroke="#3a414a" stroke-width="2" fill="none"/><path d="M164.78 520c0 22.1-17.9 40-40 40s-40-17.9-40-40 17.9-40 40-40 40 17.9 40 40z" stroke="#000" stroke-width="2" fill="#fff"/><path d="M-42.25 342.5V514a6 6 0 0 0 6 6H66.3" stroke="#3a414a" stroke-width="3" fill="none"/><path d="M-40.78 342.54h-2.95V341h2.95z" stroke="#3a414a" stroke-width=".05" fill="#3a414a"/><path d="M80.78 520l-13 7.5v-15z" stroke="#3a414a" stroke-width="3" fill="#3a414a"/><path d="M238.02 484.15a6 6 0 0 1 6-6h68a6 6 0 0 1 6 6v68a6 6 0 0 1-6 6h-68a6 6 0 0 1-6-6z" stroke="#000" stroke-width="2" fill="#c3f7c8"/><path d="M242.26 632a6 6 0 0 1 0-8.5l65.3-65.3a6 6 0 0 1 8.5 0l17.6 17.6a6 6 0 0 1 0 8.5l-65.3 65.3a6 6 0 0 1-8.5 0z" fill="none"/><use xlink:href="#h" transform="matrix(0.7071067811865476,-0.7071067811865475,0.7071067811865475,0.7071067811865476,245.08999731578172,627.7532671441376) translate(0 21.58376736111111)"/><defs><path d="M180 0v-1490h510c348 0 508 209 508 474 0 266-160 477-507 477H370V0H180zm190-706h312c236 0 327-133 327-310 0-176-91-307-329-307H370v617" id="i"/><path d="M158 0v-1118h174v172h12c41-113 157-188 290-188 26 0 70 2 91 3v181c-11-2-60-10-108-10-161 0-279 109-279 260V0H158" id="j"/><path d="M613 24c-304 0-509-231-509-576 0-350 205-580 509-580 305 0 511 230 511 580 0 345-206 576-511 576zm0-161c226 0 329-195 329-415 0-222-103-419-329-419-223 0-326 196-326 419 0 220 103 415 326 415" id="k"/><path d="M157-1118h181V80c1 225-123 350-364 338V252c126 9 184-48 183-172v-1198zm91-183c-68 0-125-53-125-119s57-119 125-119c69 0 126 53 126 119s-57 119-126 119" id="l"/><path d="M628 24c-324 0-524-230-524-574 0-343 198-582 503-582 237 0 487 146 487 559v75H286c9 234 145 362 343 362 132 0 231-58 273-172l174 48C1024-91 857 24 628 24zM287-650h624c-17-190-120-322-304-322-192 0-309 151-320 322" id="m"/><path d="M613 24c-304 0-509-231-509-576 0-350 205-580 509-580 216 0 392 114 453 309l-173 49c-33-115-133-197-280-197-223 0-326 196-326 419 0 220 103 415 326 415 150 0 252-85 285-206l172 49C1010-95 832 24 613 24" id="n"/><path d="M598-1118v154H368v674c0 100 37 144 132 144 23 0 62-6 92-12L629-6c-37 13-88 20-134 20-193 0-307-107-307-290v-688H20v-154h168v-266h180v266h230" id="o"/><g id="a"><use transform="matrix(0.010850694444444444,0,0,0.010850694444444444,0,0)" xlink:href="#i"/><use transform="matrix(0.010850694444444444,0,0,0.010850694444444444,14.192708333333332,0)" xlink:href="#j"/><use transform="matrix(0.010850694444444444,0,0,0.010850694444444444,22.189670138888886,0)" xlink:href="#k"/><use transform="matrix(0.010850694444444444,0,0,0.010850694444444444,35.514322916666664,0)" xlink:href="#l"/><use transform="matrix(0.010850694444444444,0,0,0.010850694444444444,40.89626736111111,0)" xlink:href="#m"/><use transform="matrix(0.010850694444444444,0,0,0.010850694444444444,53.85199652777778,0)" xlink:href="#n"/><use transform="matrix(0.010850694444444444,0,0,0.010850694444444444,66.54730902777777,0)" xlink:href="#o"/></g><path d="M657 26c-323 0-524-166-541-416h195c15 169 171 246 346 246 202 0 356-106 356-265 5-203-294-238-475-293-239-73-380-191-380-389 0-252 224-419 512-419 294 0 499 171 508 396H992c-17-145-151-228-328-228-193 0-321 102-321 242 0 156 175 211 284 241l149 41c160 44 422 134 422 412 0 244-197 432-541 432" id="p"/><path d="M471 26C259 26 90-98 90-318c0-256 228-303 435-329 202-27 287-16 287-108 0-139-79-219-234-219-161 0-248 86-283 164l-173-57c86-203 278-265 451-265 150 0 419 46 419 395V0H815v-152h-12C765-73 660 26 471 26zm31-159c199 0 310-134 310-271v-155c-30 35-226 55-295 64-131 17-246 59-246 186 0 116 97 176 231 176" id="q"/><g id="b"><use transform="matrix(0.010850694444444444,0,0,0.010850694444444444,0,0)" xlink:href="#p"/><use transform="matrix(0.010850694444444444,0,0,0.010850694444444444,14.2578125,0)" xlink:href="#o"/><use transform="matrix(0.010850694444444444,0,0,0.010850694444444444,21.63628472222222,0)" xlink:href="#q"/><use transform="matrix(0.010850694444444444,0,0,0.010850694444444444,34.11458333333333,0)" xlink:href="#j"/><use transform="matrix(0.010850694444444444,0,0,0.010850694444444444,42.827690972222214,0)" xlink:href="#o"/></g><path d="M784 20c-382 0-662-292-662-764 0-473 280-766 662-766s660 293 660 766c0 472-278 764-660 764zm0-176c266 0 475-207 475-588 0-383-209-590-475-590-268 0-477 208-477 590 0 380 209 588 477 588" id="r"/><path d="M180 0v-1490h190c0 262 1 526-3 784 217-279 467-523 702-784h249L716-845 1319 0h-225L585-716 370-489V0H180" id="s"/><path d="M204-479l-12-1011h204L383-479H204zm91 492c-75 0-135-60-135-134 0-75 60-135 135-135 74 0 134 60 134 135 0 74-60 134-134 134" id="t"/><g id="c"><use transform="matrix(0.010850694444444444,0,0,0.010850694444444444,0,0)" xlink:href="#r"/><use transform="matrix(0.010850694444444444,0,0,0.010850694444444444,16.9921875,0)" xlink:href="#s"/><use transform="matrix(0.010850694444444444,0,0,0.010850694444444444,31.92274305555556,0)" xlink:href="#t"/><use transform="matrix(0.010850694444444444,0,0,0.010850694444444444,38.313802083333336,0)" xlink:href="#t"/></g><path d="M180 0v-1490h908v168H370v486h669v168H370v500h727V0H180" id="u"/><path d="M538 24C308 24 148-78 108-271l171-41c32 123 123 178 257 178 156 0 256-77 256-169 0-77-54-128-164-154l-186-44c-203-48-300-148-300-305 0-192 176-326 414-326 230 0 351 112 402 269l-163 42c-31-80-94-158-238-158-133 0-233 69-233 162 0 83 57 129 188 160l169 40c203 48 298 149 298 302 0 196-179 339-441 339" id="v"/><path d="M653-1490V0H466v-1314h-10L96-1047v-204l324-239h233" id="w"/><g id="d"><use transform="matrix(0.010850694444444444,0,0,0.010850694444444444,0,0)" xlink:href="#u"/><use transform="matrix(0.010850694444444444,0,0,0.010850694444444444,13.35720486111111,0)" xlink:href="#j"/><use transform="matrix(0.010850694444444444,0,0,0.010850694444444444,22.0703125,0)" xlink:href="#j"/><use transform="matrix(0.010850694444444444,0,0,0.010850694444444444,30.06727430555556,0)" xlink:href="#k"/><use transform="matrix(0.010850694444444444,0,0,0.010850694444444444,43.391927083333336,0)" xlink:href="#j"/><use transform="matrix(0.010850694444444444,0,0,0.010850694444444444,51.7578125,0)" xlink:href="#v"/><use transform="matrix(0.010850694444444444,0,0,0.010850694444444444,63.48741319444444,0)" xlink:href="#t"/><use transform="matrix(0.010850694444444444,0,0,0.010850694444444444,69.87847222222221,0)" xlink:href="#w"/><use transform="matrix(0.010850694444444444,0,0,0.010850694444444444,78.91710069444443,0)" xlink:href="#t"/><use transform="matrix(0.010850694444444444,0,0,0.010850694444444444,85.3081597222222,0)" xlink:href="#w"/></g><path d="M180 0v-1490h270l367 940c28 72 75 218 110 339 35-117 81-264 110-339l362-940h271V0h-187c2-448-5-837 7-1287-157 497-311 829-483 1287H842C666-458 514-784 354-1284c12 438 5 843 7 1284H180" id="x"/><path d="M158 0v-1118h180V0H158zm91-1301c-68 0-125-53-125-119s57-119 125-119c69 0 126 53 126 119s-57 119-126 119" id="y"/><path d="M338-670V0H158v-1118h173l1 207c72-158 192-221 342-221 226 0 378 139 378 422V0H872v-695c0-172-96-275-252-275-161 0-282 109-282 300" id="z"/><g id="e"><use transform="matrix(0.01953125,0,0,0.01953125,0,0)" xlink:href="#x"/><use transform="matrix(0.01953125,0,0,0.01953125,36.1328125,0)" xlink:href="#q"/><use transform="matrix(0.01953125,0,0,0.01953125,58.59375,0)" xlink:href="#y"/><use transform="matrix(0.01953125,0,0,0.01953125,68.28125,0)" xlink:href="#z"/></g><path d="M370-1490V0H180v-1490h190" id="A"/><path d="M158 0v-1118h175l1 205c55-151 181-225 313-225 147 0 245 90 285 228 53-141 190-228 352-228 194 0 352 125 352 384V0h-181v-749c0-161-105-225-225-225-151 0-243 103-243 244V0H807v-767c0-124-93-207-219-207-131 0-250 92-250 270V0H158" id="B"/><path d="M158 418v-1536h174v179h20c37-59 106-193 324-193 279 0 474 222 474 576 0 356-194 580-473 580-213 0-288-135-325-197h-14v591H158zm492-555c209 0 317-186 317-421 0-232-105-413-317-413-206 0-314 166-314 413 0 249 111 421 314 421" id="C"/><path d="M481 0L54-1118h197c107 314 236 620 325 951 87-331 217-637 324-951h197L670 0H481" id="D"/><g id="f"><use transform="matrix(0.010850694444444444,0,0,0.010850694444444444,0,0)" xlink:href="#A"/><use transform="matrix(0.010850694444444444,0,0,0.010850694444444444,5.967881944444445,0)" xlink:href="#B"/><use transform="matrix(0.010850694444444444,0,0,0.010850694444444444,25.43402777777778,0)" xlink:href="#C"/><use transform="matrix(0.010850694444444444,0,0,0.010850694444444444,39.040798611111114,0)" xlink:href="#j"/><use transform="matrix(0.010850694444444444,0,0,0.010850694444444444,47.037760416666664,0)" xlink:href="#k"/><use transform="matrix(0.010850694444444444,0,0,0.010850694444444444,59.928385416666664,0)" xlink:href="#D"/><use transform="matrix(0.010850694444444444,0,0,0.010850694444444444,71.98350694444444,0)" xlink:href="#m"/></g><path d="M180 0v-1490h901v168H370v510h643v168H370V0H180" id="E"/><path d="M65 0l393-574-370-544h210c88 136 192 297 267 435 67-142 176-302 264-435h206L661-564 1053 0H844c-94-144-206-310-287-458C484-308 366-142 273 0H65" id="F"/><g id="g"><use transform="matrix(0.01953125,0,0,0.01953125,0,0)" xlink:href="#E"/><use transform="matrix(0.01953125,0,0,0.01953125,23.61328125,0)" xlink:href="#y"/><use transform="matrix(0.01953125,0,0,0.01953125,33.30078125,0)" xlink:href="#F"/></g><path d="M52 0l541-1490h220L1361 0h-200l-149-416H398L254 0H52zm404-582h497c-103-290-145-390-251-756-108 377-145 460-246 756" id="G"/><g id="h"><use transform="matrix(0.010850694444444444,0,0,0.010850694444444444,0,0)" xlink:href="#G"/><use transform="matrix(0.010850694444444444,0,0,0.010850694444444444,15.33203125,0)" xlink:href="#n"/><use transform="matrix(0.010850694444444444,0,0,0.010850694444444444,28.02734375,0)" xlink:href="#n"/><use transform="matrix(0.010850694444444444,0,0,0.010850694444444444,40.72265625,0)" xlink:href="#m"/><use transform="matrix(0.010850694444444444,0,0,0.010850694444444444,53.678385416666664,0)" xlink:href="#C"/><use transform="matrix(0.010850694444444444,0,0,0.010850694444444444,67.28515625,0)" xlink:href="#o"/></g></defs></g></svg>