<svg xmlns="http://www.w3.org/2000/svg" xmlns:xlink="http://www.w3.org/1999/xlink" xmlns:lucid="lucid" width="802" height="402"><g transform="translate(381 -19)" lucid:page-tab-id="0_0"><path d="M-300 100c0 22.1-17.9 40-40 40s-40-17.9-40-40 17.9-40 40-40 40 17.9 40 40z" stroke="#000" stroke-width="2" fill="#fff"/><use xlink:href="#a" transform="matrix(1,0,0,1,-375,65) translate(30.48068576388889 43.40277777777778)"/><path d="M260 26a6 6 0 0 1 6-6h148a6 6 0 0 1 6 6v48a6 6 0 0 1-6 6H266a6 6 0 0 1-6-6z" stroke="#000" stroke-width="2" fill="#c3f7c8"/><use xlink:href="#b" transform="matrix(1,0,0,1,265,25) translate(49.77213541666667 34.02777777777778)"/><path d="M283.9 124.4A13.8 13.8 0 0 1 294 120h72a13.8 13.8 0 0 1 10.1 4.4l19.8 21.2a6.43 6.43 0 0 1 0 8.8l-19.8 21.2A13.8 13.8 0 0 1 366 180h-72a13.8 13.8 0 0 1-10.1-4.4l-19.8-21.2a6.43 6.43 0 0 1 0-8.8z" fill="#fe7070"/><path d="M318 120h24m12 0h12a13.8 13.8 0 0 1 10.1 4.4l6.6 7.06m6.6 7.08l6.6 7.07a6.43 6.43 0 0 1 0 8.8l-6.6 7.06m-6.6 7.08l-6.6 7.07A13.8 13.8 0 0 1 366 180h-12m-12 0h-24m-12 0h-12a13.8 13.8 0 0 1-10.1-4.4l-6.6-7.06m-6.6-7.08l-6.6-7.07a6.43 6.43 0 0 1 0-8.8l6.6-7.06m6.6-7.08l6.6-7.07A13.8 13.8 0 0 1 294 120h12" stroke="#000" stroke-width="2" fill="none"/><use xlink:href="#c" transform="matrix(1,0,0,1,265,125) translate(34.384340277777774 34.02777777777778)"/><path d="M-140 100c0 22.1-17.9 40-40 40s-40-17.9-40-40 17.9-40 40-40 40 17.9 40 40z" stroke="#000" stroke-width="2" fill="#fff"/><use xlink:href="#d" transform="matrix(1,0,0,1,-215,65) translate(28.223741319444443 43.40277777777778)"/><path d="M20 100c0 22.1-17.9 40-40 40s-40-17.9-40-40 17.9-40 40-40 40 17.9 40 40z" stroke="#000" stroke-width="2" fill="#fff"/><use xlink:href="#e" transform="matrix(1,0,0,1,-55,65) translate(28.13693576388889 43.40277777777778)"/><path d="M-300 260c0 22.1-17.9 40-40 40s-40-17.9-40-40 17.9-40 40-40 40 17.9 40 40z" stroke="#000" stroke-width="2" fill="#fff"/><use xlink:href="#f" transform="matrix(1,0,0,1,-375,225) translate(27.822265625 43.40277777777778)"/><path d="M-61.5 100h-4.28m-4.28 0h-8.55m-4.3 0h-8.54m-4.28 0h-8.36m-4.1 0h-8.16m-4.08 0h-4.1" stroke="#3a414a" fill="none"/><path d="M-61 100l.02.47h-.53v-.94h.53z" stroke="#3a414a" stroke-width=".05" fill="#3a414a"/><path d="M-138 100l13-7.5v15z" stroke="#3a414a" fill="#3a414a"/><path d="M-221.5 100h-4.28m-4.28 0h-8.55m-4.3 0h-8.54m-4.28 0h-8.36m-4.1 0h-8.16m-4.08 0h-4.1" stroke="#3a414a" fill="none"/><path d="M-221 100l.02.47h-.53v-.94h.53z" stroke="#3a414a" stroke-width=".05" fill="#3a414a"/><path d="M-298 100l13-7.5v15z" stroke="#3a414a" fill="#3a414a"/><path d="M-140 260c0 22.1-17.9 40-40 40s-40-17.9-40-40 17.9-40 40-40 40 17.9 40 40z" stroke="#000" stroke-width="2" fill="#fff"/><use xlink:href="#g" transform="matrix(1,0,0,1,-215,225) translate(28.245442708333336 43.40277777777778)"/><path d="M-100 366a6 6 0 0 1 6-6H54a6 6 0 0 1 6 6v48a6 6 0 0 1-6 6H-94a6 6 0 0 1-6-6z" stroke="#000" stroke-width="2" fill="#c3f7c8"/><use xlink:href="#h" transform="matrix(1,0,0,1,-95,365) translate(11.246744791666671 34.02777777777778)"/><path d="M20 260c0 22.1-17.9 40-40 40s-40-17.9-40-40 17.9-40 40-40 40 17.9 40 40z" stroke="#000" stroke-width="2" fill="#fff"/><use xlink:href="#i" transform="matrix(1,0,0,1,-55,225) translate(28.10980902777778 43.40277777777778)"/><path d="M-20 358.5v-4.78m0-4.78v-9.56m0-4.77v-9.55m0-4.78v-4.78" stroke="#3a414a" fill="none"/><path d="M-19.52 359h-.96v-.5h.96z" stroke="#3a414a" stroke-width=".05" fill="#3a414a"/><path d="M-20 302l7.5 13h-15z" stroke="#3a414a" fill="#3a414a"/><path d="M-61.5 260h-5.25m-5.25 0h-10.5m-5.25 0h-10.5m-5.26 0H-114m-5.26 0h-5.25" stroke="#3a414a" fill="none"/><path d="M-61 260l.02.48h-.53v-.96h.53z" stroke="#3a414a" stroke-width=".05" fill="#3a414a"/><path d="M-138 260l13-7.5v15z" stroke="#3a414a" fill="#3a414a"/><path d="M-221.5 260h-5.25m-5.25 0h-10.5m-5.25 0h-10.5m-5.26 0H-274m-5.26 0h-5.25" stroke="#3a414a" fill="none"/><path d="M-221 260l.02.48h-.53v-.96h.53z" stroke="#3a414a" stroke-width=".05" fill="#3a414a"/><path d="M-298 260l13-7.5v15z" stroke="#3a414a" fill="#3a414a"/><path d="M220 100c0 27.6-22.4 50-50 50s-50-22.4-50-50 22.4-50 50-50 50 22.4 50 50z" stroke="#000" stroke-width="2" fill="#fff"/><use xlink:href="#j" transform="matrix(1,0,0,1,125,55) translate(11.199661458333333 35.59027777777778)"/><use xlink:href="#k" transform="matrix(1,0,0,1,125,55) translate(4.434253472222226 67.85590277777777)"/><path d="M118.5 100h-4.6m-4.62 0h-9.23m-4.6 0H86.2m-4.6 0h-9.24m-4.6 0h-9.23m-4.6 0H44.7m-4.6 0h-4.6" stroke="#3a414a" fill="none"/><path d="M119 100l.02.47h-.53v-.94h.52z" stroke="#3a414a" stroke-width=".05" fill="#3a414a"/><path d="M22 100l13-7.5v15z" stroke="#3a414a" fill="#3a414a"/><path d="M118.5 100h-4.72m-4.72 0H99.6m-4.7 0h-9.46m-4.72 0H76a6 6 0 0 0-6 6v4.93m0 4.94v9.86m0 4.94v9.86m0 4.94v9.86m0 4.94v9.86m0 4.94v9.86m0 4.94v9.86m0 4.94v9.86m0 4.94v9.86m0 4.94v9.86m0 4.94V254a6 6 0 0 1-6 6h-4.75m-4.75 0H45m-4.76 0H35.5" stroke="#3a414a" fill="none"/><path d="M119 100l.02.47h-.53v-.94h.52z" stroke="#3a414a" stroke-width=".05" fill="#3a414a"/><path d="M22 260l13-7.5v15z" stroke="#3a414a" fill="#3a414a"/><path d="M260.86 150h-4.56m-4.56 0h-4.56a6 6 0 0 1-6-6v-4.26m0-4.25v-8.53m0-4.25v-8.52m0-4.25v-4.26a5.7 5.7 0 0 0-5.7-5.7" stroke="#3a414a" fill="none"/><path d="M261.36 150l.04.47h-.55v-.94h.55z" stroke="#3a414a" stroke-width=".05" fill="#3a414a"/><path d="M222 100l13-7.5v15z" stroke="#3a414a" fill="#3a414a"/><path d="M258.5 50h-4.17m-4.16 0H246a6 6 0 0 0-6 6v4.4m0 4.38v8.77m0 4.4v8.77m0 4.38v4.4a4.5 4.5 0 0 1-4.5 4.5" stroke="#3a414a" fill="none"/><path d="M259 50.48h-.5v-.95h.5z" stroke="#3a414a" stroke-width=".05" fill="#3a414a"/><path d="M222 100l13-7.5v15z" stroke="#3a414a" fill="#3a414a"/><defs><path d="M653-1490V0H466v-1314h-10L96-1047v-204l324-239h233" id="l"/><use transform="matrix(0.010850694444444444,0,0,0.010850694444444444,0,0)" xlink:href="#l" id="a"/><path d="M158 0v-1118h175l1 205c55-151 181-225 313-225 147 0 245 90 285 228 53-141 190-228 352-228 194 0 352 125 352 384V0h-181v-749c0-161-105-225-225-225-151 0-243 103-243 244V0H807v-767c0-124-93-207-219-207-131 0-250 92-250 270V0H158" id="m"/><path d="M471 26C259 26 90-98 90-318c0-256 228-303 435-329 202-27 287-16 287-108 0-139-79-219-234-219-161 0-248 86-283 164l-173-57c86-203 278-265 451-265 150 0 419 46 419 395V0H815v-152h-12C765-73 660 26 471 26zm31-159c199 0 310-134 310-271v-155c-30 35-226 55-295 64-131 17-246 59-246 186 0 116 97 176 231 176" id="n"/><path d="M158 0v-1118h180V0H158zm91-1301c-68 0-125-53-125-119s57-119 125-119c69 0 126 53 126 119s-57 119-126 119" id="o"/><path d="M338-670V0H158v-1118h173l1 207c72-158 192-221 342-221 226 0 378 139 378 422V0H872v-695c0-172-96-275-252-275-161 0-282 109-282 300" id="p"/><g id="b"><use transform="matrix(0.010850694444444444,0,0,0.010850694444444444,0,0)" xlink:href="#m"/><use transform="matrix(0.010850694444444444,0,0,0.010850694444444444,19.466145833333332,0)" xlink:href="#n"/><use transform="matrix(0.010850694444444444,0,0,0.010850694444444444,31.944444444444443,0)" xlink:href="#o"/><use transform="matrix(0.010850694444444444,0,0,0.010850694444444444,37.326388888888886,0)" xlink:href="#p"/></g><path d="M180 0v-1490h190v644h782v-644h190V0h-190v-678H370V0H180" id="q"/><path d="M180 0v-1490h908v168H370v486h669v168H370v500h727V0H180" id="r"/><path d="M52 0l541-1490h220L1361 0h-200l-149-416H398L254 0H52zm404-582h497c-103-290-145-390-251-756-108 377-145 460-246 756" id="s"/><path d="M645 0H180v-1490h484c435 0 692 280 692 742 0 466-257 748-711 748zM370-168h263c363 0 539-218 539-580 0-358-176-574-521-574H370v1154" id="t"/><g id="c"><use transform="matrix(0.010850694444444444,0,0,0.010850694444444444,0,0)" xlink:href="#q"/><use transform="matrix(0.010850694444444444,0,0,0.010850694444444444,16.514756944444443,0)" xlink:href="#r"/><use transform="matrix(0.010850694444444444,0,0,0.010850694444444444,29.871961805555554,0)" xlink:href="#s"/><use transform="matrix(0.010850694444444444,0,0,0.010850694444444444,45.20399305555556,0)" xlink:href="#t"/></g><path d="M154 0v-137l495-537c165-179 249-281 249-418 0-156-121-253-280-253-170 0-278 110-278 278H158c0-264 200-443 465-443 266 0 455 183 455 416 0 161-73 288-336 568L416-179v12h687V0H154" id="u"/><use transform="matrix(0.010850694444444444,0,0,0.010850694444444444,0,0)" xlink:href="#u" id="d"/><path d="M635 20c-292 0-500-160-510-396h192c11 142 145 229 315 229 187 0 323-105 323-260 0-161-125-274-346-274H488v-165h121c174 0 294-100 294-254 0-148-104-245-266-245-152 0-291 85-297 230H157c8-234 222-395 484-395 278 0 448 188 448 400 0 168-95 291-247 336v12c190 31 301 169 301 357 0 244-216 425-508 425" id="v"/><use transform="matrix(0.010850694444444444,0,0,0.010850694444444444,0,0)" xlink:href="#v" id="e"/><path d="M120-303v-155l652-1032h231v1020h202v167h-202V0H821v-303H120zm702-167v-782h-12L323-482v12h499" id="w"/><use transform="matrix(0.010850694444444444,0,0,0.010850694444444444,0,0)" xlink:href="#w" id="f"/><path d="M626 20c-262 0-458-168-468-396h184c12 133 134 229 284 229 180 0 311-137 311-326 0-192-136-335-323-335-92 0-196 33-255 78l-178-22 88-738h784v167H429l-51 435h8c61-51 160-87 263-87 273 0 474 211 474 499 0 286-210 496-497 496" id="x"/><use transform="matrix(0.010850694444444444,0,0,0.010850694444444444,0,0)" xlink:href="#x" id="g"/><path d="M628 24c-324 0-524-230-524-574 0-343 198-582 503-582 237 0 487 146 487 559v75H286c9 234 145 362 343 362 132 0 231-58 273-172l174 48C1024-91 857 24 628 24zM287-650h624c-17-190-120-322-304-322-192 0-309 151-320 322" id="y"/><path d="M409 0L70-1118h191c89 329 165 560 243 925 75-353 154-601 240-925h192c85 325 161 564 235 922 77-354 157-598 244-922h191L1267 0h-179c-86-307-176-590-250-913C763-588 675-308 588 0H409" id="z"/><path d="M798-719v166H144v-166h654" id="A"/><path d="M677 24c-213 0-288-135-325-197h-20V0H158v-1490h180v551h14c37-59 106-193 324-193 279 0 474 222 474 576 0 356-194 580-473 580zm-27-161c209 0 317-186 317-421 0-232-105-413-317-413-206 0-314 166-314 413 0 249 111 421 314 421" id="B"/><path d="M158 0v-1118h174v172h12c41-113 157-188 290-188 26 0 70 2 91 3v181c-11-2-60-10-108-10-161 0-279 109-279 260V0H158" id="C"/><path d="M613 24c-304 0-509-231-509-576 0-350 205-580 509-580 216 0 392 114 453 309l-173 49c-33-115-133-197-280-197-223 0-326 196-326 419 0 220 103 415 326 415 150 0 252-85 285-206l172 49C1010-95 832 24 613 24" id="D"/><path d="M338-670V0H158v-1490h180v566c73-149 190-208 336-208 226 0 379 139 379 422V0H872v-695c0-172-96-275-252-275-161 0-282 109-282 300" id="E"/><g id="h"><use transform="matrix(0.010850694444444444,0,0,0.010850694444444444,0,0)" xlink:href="#p"/><use transform="matrix(0.010850694444444444,0,0,0.010850694444444444,13.129340277777777,0)" xlink:href="#y"/><use transform="matrix(0.010850694444444444,0,0,0.010850694444444444,25.68359375,0)" xlink:href="#z"/><use transform="matrix(0.010850694444444444,0,0,0.010850694444444444,43.869357638888886,0)" xlink:href="#A"/><use transform="matrix(0.010850694444444444,0,0,0.010850694444444444,54.09071180555556,0)" xlink:href="#B"/><use transform="matrix(0.010850694444444444,0,0,0.010850694444444444,67.69748263888889,0)" xlink:href="#C"/><use transform="matrix(0.010850694444444444,0,0,0.010850694444444444,76.06336805555556,0)" xlink:href="#n"/><use transform="matrix(0.010850694444444444,0,0,0.010850694444444444,88.54166666666667,0)" xlink:href="#p"/><use transform="matrix(0.010850694444444444,0,0,0.010850694444444444,101.67100694444444,0)" xlink:href="#D"/><use transform="matrix(0.010850694444444444,0,0,0.010850694444444444,114.36631944444444,0)" xlink:href="#E"/></g><path d="M646 20c-249 0-524-159-524-708 0-524 209-822 547-822 250 0 431 161 467 395H950c-33-129-126-227-281-227-229 0-367 208-367 566h12c80-124 212-198 367-198 255 0 467 205 467 493 0 278-198 501-502 501zm0-167c179 0 318-148 318-334 0-182-133-328-313-328-181 0-322 156-322 330 0 176 134 332 317 332" id="F"/><use transform="matrix(0.010850694444444444,0,0,0.010850694444444444,0,0)" xlink:href="#F" id="i"/><path d="M180 0v-1490h270l367 940c28 72 75 218 110 339 35-117 81-264 110-339l362-940h271V0h-187c2-448-5-837 7-1287-157 497-311 829-483 1287H842C666-458 514-784 354-1284c12 438 5 843 7 1284H180" id="G"/><path d="M611 442c-248 0-391-105-460-228l146-94c47 65 117 165 314 165 178 0 307-82 307-266v-224h-17C863-141 792-18 576-18c-268 0-472-195-472-546 0-346 197-568 476-568 216 0 288 133 326 193h17v-179h175V29c0 289-215 413-487 413zm-5-620c203 0 314-146 314-390 0-237-108-403-314-403-213 0-319 180-319 403 0 230 109 390 319 390" id="H"/><g id="j"><use transform="matrix(0.010850694444444444,0,0,0.010850694444444444,0,0)" xlink:href="#G"/><use transform="matrix(0.010850694444444444,0,0,0.010850694444444444,20.07378472222222,0)" xlink:href="#y"/><use transform="matrix(0.010850694444444444,0,0,0.010850694444444444,33.029513888888886,0)" xlink:href="#C"/><use transform="matrix(0.010850694444444444,0,0,0.010850694444444444,41.026475694444436,0)" xlink:href="#H"/><use transform="matrix(0.010850694444444444,0,0,0.010850694444444444,54.65494791666666,0)" xlink:href="#y"/></g><path d="M783 20c-382 0-661-292-661-764 0-473 279-766 661-766 302 0 548 182 601 489h-190c-42-204-217-313-411-313-268 0-476 208-476 590 0 381 209 588 476 588 195 0 369-110 411-313h190c-52 303-296 489-601 489" id="I"/><path d="M613 24c-304 0-509-231-509-576 0-350 205-580 509-580 305 0 511 230 511 580 0 345-206 576-511 576zm0-161c226 0 329-195 329-415 0-222-103-419-329-419-223 0-326 196-326 419 0 220 103 415 326 415" id="J"/><path d="M598-1118v154H368v674c0 100 37 144 132 144 23 0 62-6 92-12L629-6c-37 13-88 20-134 20-193 0-307-107-307-290v-688H20v-154h168v-266h180v266h230" id="K"/><g id="k"><use transform="matrix(0.010850694444444444,0,0,0.010850694444444444,0,0)" xlink:href="#I"/><use transform="matrix(0.010850694444444444,0,0,0.010850694444444444,16.23263888888889,0)" xlink:href="#J"/><use transform="matrix(0.010850694444444444,0,0,0.010850694444444444,29.557291666666664,0)" xlink:href="#m"/><use transform="matrix(0.010850694444444444,0,0,0.010850694444444444,49.0234375,0)" xlink:href="#m"/><use transform="matrix(0.010850694444444444,0,0,0.010850694444444444,68.48958333333333,0)" xlink:href="#o"/><use transform="matrix(0.010850694444444444,0,0,0.010850694444444444,73.87152777777777,0)" xlink:href="#K"/></g></defs></g></svg>