<svg xmlns="http://www.w3.org/2000/svg" xmlns:xlink="http://www.w3.org/1999/xlink" xmlns:lucid="lucid" width="1431.54" height="382.89"><g transform="translate(440.00000000000006 -259)" lucid:page-tab-id="0_0"><path d="M-160 300c0 22.1-17.9 40-40 40s-40-17.9-40-40 17.9-40 40-40 40 17.9 40 40z" stroke="#000" stroke-width="2" fill="#fff"/><path d="M-440 276.8a6 6 0 0 1 6-6h91.15a6 6 0 0 1 6 6v46.4a6 6 0 0 1-6 6H-434a6 6 0 0 1-6-6z" fill="none"/><use xlink:href="#a" transform="matrix(1,0,0,1,-435,275.79578125) translate(0 39.05078125)"/><path d="M-335.85 300h10.43m10.43 0h20.86m10.43 0h20.84m10.43 0H-242" stroke="#3a414a" stroke-width="2" fill="none"/><path d="M-335.82 300.98h-1.03v-1.96h1.03zM-241 300l.03.98h-1.06v-1.96h1.1z" stroke="#3a414a" stroke-width=".05" fill="#3a414a"/><path d="M87.14 620.04a6 6 0 0 1 0-8.48l47.3-47.32a6 6 0 0 1 8.5 0l17.6 17.6a6 6 0 0 1 0 8.5l-47.3 47.3a6 6 0 0 1-8.5 0z" fill="none"/><use xlink:href="#b" transform="matrix(0.7071067811865476,-0.7071067811865475,0.7071067811865475,0.7071067811865476,89.96452025651769,615.8002046055838) translate(0 21.58376736111111)"/><path d="M-440 496.8a6 6 0 0 1 6-6h72.66a6 6 0 0 1 6 6v46.4a6 6 0 0 1-6 6H-434a6 6 0 0 1-6-6z" fill="none"/><use xlink:href="#c" transform="matrix(1,0,0,1,-435.00000000000006,495.79578125) translate(0 39.05078125)"/><path d="M-354.34 520h9.7m9.73 0h19.4m9.73 0h19.43m9.7 0h19.44m9.7 0h19.44m9.7 0h19.44m9.7 0h19.44m9.72 0h19.42m9.72 0h19.43m9.72 0h19.43m9.7 0h19.44m9.7 0h19.43m9.71 0H5.07m9.72 0h19.4m9.73 0h19.43m9.7 0h9.72" stroke="#3a414a" stroke-width="2" fill="none"/><path d="M-354.32 520.98h-1.02V519h1.02zM83.78 520l.04.98h-1.06V519h1.08z" stroke="#3a414a" stroke-width=".05" fill="#3a414a"/><path d="M164.78 520c0 22.1-17.9 40-40 40s-40-17.9-40-40 17.9-40 40-40 40 17.9 40 40z" stroke="#000" stroke-width="2" fill="#fff"/><path d="M-158 300h8.44m8.45 0h16.88m8.44 0h16.9m8.44 0H-82" stroke="#3a414a" stroke-width="2" fill="none"/><path d="M-157.97 300.98h-1.1l.07-.97-.03-.98h1.06zM-81 300l.03.98h-1.06v-1.96h1.1z" stroke="#3a414a" stroke-width=".05" fill="#3a414a"/><path d="M0 300c0 22.1-17.9 40-40 40s-40-17.9-40-40 17.9-40 40-40 40 17.9 40 40z" stroke="#000" stroke-width="2" fill="#fff"/><path d="M2 300h9.83m9.84 0h19.66m9.84 0h19.66m9.84 0h19.66m9.84 0h19.66m9.84 0h19.66m9.84 0h19.66m9.84 0h19.66m9.84 0H238" stroke="#3a414a" stroke-width="2" fill="none"/><path d="M2.03 300.98H.93L1 300l-.03-.98h1.06zM239 300l.03.98h-1.06v-1.96h1.1z" stroke="#3a414a" stroke-width=".05" fill="#3a414a"/><path d="M320 300c0 22.1-17.9 40-40 40s-40-17.9-40-40 17.9-40 40-40 40 17.9 40 40z" stroke="#000" stroke-width="2" fill="#fff"/><path d="M166.78 520h8.45m8.44 0h16.9m8.44 0h16.9m8.44 0h8.44" stroke="#3a414a" stroke-width="2" fill="none"/><path d="M166.8 520.98h-1.07l.06-.97-.05-.98h1.06zM243.78 520l.04.98h-1.06V519h1.08z" stroke="#3a414a" stroke-width=".05" fill="#3a414a"/><path d="M324.78 520c0 22.1-17.9 40-40 40s-40-17.9-40-40 17.9-40 40-40 40 17.9 40 40z" stroke="#000" stroke-width="2" fill="#fff"/><path d="M326.8 520h8.43m8.44 0h16.9m8.44 0h16.9m8.44 0h8.44" stroke="#3a414a" stroke-width="2" fill="none"/><path d="M326.8 520.98h-1.07l.06-.97-.05-.98h1.06zM403.78 520l.04.98h-1.06V519h1.08z" stroke="#3a414a" stroke-width=".05" fill="#3a414a"/><path d="M484.78 520c0 22.1-17.9 40-40 40s-40-17.9-40-40 17.9-40 40-40 40 17.9 40 40z" stroke="#000" stroke-width="2" fill="#fff"/><path d="M322 300h8.44m8.45 0h16.88m8.44 0h16.9m8.44 0H398" stroke="#3a414a" stroke-width="2" fill="none"/><path d="M322.03 300.98h-1.1l.07-.97-.03-.98h1.06zM399 300l.03.98h-1.06v-1.96h1.1z" stroke="#3a414a" stroke-width=".05" fill="#3a414a"/><path d="M480 300c0 22.1-17.9 40-40 40s-40-17.9-40-40 17.9-40 40-40 40 17.9 40 40z" stroke="#000" stroke-width="2" fill="#fff"/><path d="M482 300h8.44m8.45 0h16.88m8.44 0h16.9m8.43 0H558" stroke="#3a414a" stroke-width="2" fill="none"/><path d="M482.03 300.98h-1.1l.07-.97-.03-.98h1.06zM559 300l.03.98h-1.06v-1.96h1.1z" stroke="#3a414a" stroke-width=".05" fill="#3a414a"/><path d="M640 300c0 22.1-17.9 40-40 40s-40-17.9-40-40 17.9-40 40-40 40 17.9 40 40z" stroke="#000" stroke-width="2" fill="#fff"/><path d="M486.8 520h9.88m9.9 0h19.8m9.9 0h19.78m9.9 0h19.8m9.9 0h19.78m9.9 0h19.8m9.9 0h19.8m9.88 0h19.8m9.9 0h19.8m9.88 0h9.9a6 6 0 0 0 6-6v-9.56m0-9.55v-19.12m0-9.56v-19.1m0-9.56v-19.12m0-9.55v-19.12m0-9.56v-19.1m0-9.56V342" stroke="#3a414a" stroke-width="2" fill="none"/><path d="M486.8 520.98h-1.07l.06-.97-.05-.98h1.06zM760 341l.98-.03v1.06H759v-1.1z" stroke="#3a414a" stroke-width=".05" fill="#3a414a"/><path d="M-255.44 422.3a6 6 0 0 1 0-8.5l74.3-74.3a6 6 0 0 1 8.5 0l17.6 17.6a6 6 0 0 1 0 8.5l-74.3 74.3a6 6 0 0 1-8.5 0z" fill="none"/><use xlink:href="#d" transform="matrix(0.7071067811865476,-0.7071067811865475,0.7071067811865475,0.7071067811865476,-252.61221595933856,418.05719498581584) translate(0 21.58376736111111)"/><path d="M-104.64 427.03a6 6 0 0 1 0-8.48l76.97-76.97a6 6 0 0 1 8.48 0l17.62 17.6a6 6 0 0 1 0 8.5l-76.97 76.96a6 6 0 0 1-8.48 0z" fill="none"/><use xlink:href="#e" transform="matrix(0.7071067811865476,-0.7071067811865475,0.7071067811865475,0.7071067811865476,-101.81112488378605,422.79135195203895) translate(0 21.58376736111111)"/><path d="M244.24 620.04a6 6 0 0 1 0-8.48l44.64-44.64a6 6 0 0 1 8.48 0l17.6 17.6a6 6 0 0 1 0 8.5l-44.63 44.63a6 6 0 0 1-8.48 0z" fill="none"/><use xlink:href="#f" transform="matrix(0.7071067811865476,-0.7071067811865475,0.7071067811865475,0.7071067811865476,247.07106781186553,615.8002046055835) translate(0 21.58376736111111)"/><path d="M407.14 620.04a6 6 0 0 1 0-8.48l47.3-47.32a6 6 0 0 1 8.5 0l17.6 17.6a6 6 0 0 1 0 8.5l-47.3 47.3a6 6 0 0 1-8.5 0z" fill="none"/><use xlink:href="#g" transform="matrix(0.7071067811865476,-0.7071067811865475,0.7071067811865475,0.7071067811865476,409.9645202565178,615.8002046055838) translate(0 21.58376736111111)"/><path d="M240.3 401.3a6 6 0 0 1 0-8.48l53.3-53.3a6 6 0 0 1 8.5 0l17.6 17.6a6 6 0 0 1 0 8.48l-53.3 53.3a6 6 0 0 1-8.5 0z" fill="none"/><use xlink:href="#h" transform="matrix(0.7071067811865476,-0.7071067811865475,0.7071067811865475,0.7071067811865476,243.1270138056746,397.063110302546) translate(0 21.58376736111111)"/><path d="M396.35 406.04a6 6 0 0 1 0-8.5l53.32-53.3a6 6 0 0 1 8.48 0l17.6 17.6a6 6 0 0 1 0 8.5l-53.3 53.3a6 6 0 0 1-8.5 0z" fill="none"/><use xlink:href="#i" transform="matrix(0.7071067811865476,-0.7071067811865475,0.7071067811865475,0.7071067811865476,399.18295979948374,401.7972672687691) translate(0 21.58376736111111)"/><path d="M552.66 403.38a6 6 0 0 1 0-8.5l53.3-53.3a6 6 0 0 1 8.5 0l17.6 17.6a6 6 0 0 1 0 8.5l-53.3 53.3a6 6 0 0 1-8.5 0z" fill="none"/><use xlink:href="#j" transform="matrix(0.7071067811865476,-0.7071067811865475,0.7071067811865475,0.7071067811865476,555.4856930549396,399.13487519984835) translate(0 21.58376736111111)"/><path d="M641.5 300h5.13m5.14 0h10.26m5.14 0h10.26m5.14 0h10.26m5.14 0h10.26m5.14 0h5.13" stroke="#3a414a" fill="none"/><path d="M641.5 300.48h-.53l.03-.47-.02-.48h.53zM719 300l.02.48h-.53v-.96h.53z" stroke="#3a414a" stroke-width=".05" fill="#3a414a"/><path d="M800 300c0 22.1-17.9 40-40 40s-40-17.9-40-40 17.9-40 40-40 40 17.9 40 40z" stroke="#000" stroke-width="2" fill="#fff"/><path d="M801.5 300h5.13m5.14 0h10.26m5.14 0h10.26m5.14 0h10.26m5.14 0h10.26m5.14 0h5.13" stroke="#3a414a" fill="none"/><path d="M801.5 300.48h-.53l.03-.47-.02-.48h.53zM879 300l.02.48h-.53v-.96h.53z" stroke="#3a414a" stroke-width=".05" fill="#3a414a"/><path d="M960 300c0 22.1-17.9 40-40 40s-40-17.9-40-40 17.9-40 40-40 40 17.9 40 40z" stroke="#000" stroke-width="2" fill="#fff"/><path d="M720.3 401.3a6 6 0 0 1 0-8.48l53.3-53.3a6 6 0 0 1 8.5 0l17.6 17.6a6 6 0 0 1 0 8.48l-53.3 53.3a6 6 0 0 1-8.5 0z" fill="none"/><use xlink:href="#k" transform="matrix(0.7071067811865476,-0.7071067811865475,0.7071067811865475,0.7071067811865476,723.1270138056747,397.06311030254585) translate(0 21.58376736111111)"/><path d="M884.24 409.7a6 6 0 0 1 0-8.5l76.97-76.96a6 6 0 0 1 8.5 0l17.6 17.6a6 6 0 0 1 0 8.5l-76.97 76.96a6 6 0 0 1-8.48 0z" fill="none"/><use xlink:href="#l" transform="matrix(0.7071067811865476,-0.7071067811865475,0.7071067811865475,0.7071067811865476,887.0710678118655,405.4537440209599) translate(0 21.58376736111111)"/><defs><path d="M52 0l541-1490h220L1361 0h-200l-149-416H398L254 0H52zm404-582h497c-103-290-145-390-251-756-108 377-145 460-246 756" id="m"/><path d="M338-1490V0H158v-1490h180" id="n"/><path d="M158 0v-1118h180V0H158zm91-1301c-68 0-125-53-125-119s57-119 125-119c69 0 126 53 126 119s-57 119-126 119" id="o"/><path d="M613 24c-304 0-509-231-509-576 0-350 205-580 509-580 216 0 392 114 453 309l-173 49c-33-115-133-197-280-197-223 0-326 196-326 419 0 220 103 415 326 415 150 0 252-85 285-206l172 49C1010-95 832 24 613 24" id="p"/><path d="M628 24c-324 0-524-230-524-574 0-343 198-582 503-582 237 0 487 146 487 559v75H286c9 234 145 362 343 362 132 0 231-58 273-172l174 48C1024-91 857 24 628 24zM287-650h624c-17-190-120-322-304-322-192 0-309 151-320 322" id="q"/><g id="a"><use transform="matrix(0.01953125,0,0,0.01953125,0,0)" xlink:href="#m"/><use transform="matrix(0.01953125,0,0,0.01953125,27.59765625,0)" xlink:href="#n"/><use transform="matrix(0.01953125,0,0,0.01953125,37.28515625,0)" xlink:href="#o"/><use transform="matrix(0.01953125,0,0,0.01953125,46.97265625,0)" xlink:href="#p"/><use transform="matrix(0.01953125,0,0,0.01953125,69.82421875,0)" xlink:href="#q"/></g><path d="M677 24c-213 0-288-135-325-197h-20V0H158v-1490h180v551h14c37-59 106-193 324-193 279 0 474 222 474 576 0 356-194 580-473 580zm-27-161c209 0 317-186 317-421 0-232-105-413-317-413-206 0-314 166-314 413 0 249 111 421 314 421" id="r"/><path d="M613 24c-304 0-509-231-509-576 0-350 205-580 509-580 305 0 511 230 511 580 0 345-206 576-511 576zm0-161c226 0 329-195 329-415 0-222-103-419-329-419-223 0-326 196-326 419 0 220 103 415 326 415" id="s"/><path d="M798-719v166H144v-166h654" id="t"/><path d="M635 20c-292 0-500-160-510-396h192c11 142 145 229 315 229 187 0 323-105 323-260 0-161-125-274-346-274H488v-165h121c174 0 294-100 294-254 0-148-104-245-266-245-152 0-291 85-297 230H157c8-234 222-395 484-395 278 0 448 188 448 400 0 168-95 291-247 336v12c190 31 301 169 301 357 0 244-216 425-508 425" id="u"/><g id="b"><use transform="matrix(0.010850694444444444,0,0,0.010850694444444444,0,0)" xlink:href="#r"/><use transform="matrix(0.010850694444444444,0,0,0.010850694444444444,13.606770833333332,0)" xlink:href="#s"/><use transform="matrix(0.010850694444444444,0,0,0.010850694444444444,26.931423611111104,0)" xlink:href="#r"/><use transform="matrix(0.010850694444444444,0,0,0.010850694444444444,40.53819444444444,0)" xlink:href="#t"/><use transform="matrix(0.010850694444444444,0,0,0.010850694444444444,50.509982638888886,0)" xlink:href="#u"/></g><path d="M180 0v-1490h528c311 0 458 177 458 395 0 191-114 278-244 313v14c139 9 302 137 302 371 0 225-148 397-499 397H180zm190-168h350c232 0 321-102 321-231 0-149-120-277-311-277H370v508zm0-668h328c160 0 286-101 286-255 0-129-87-231-280-231H370v486" id="v"/><g id="c"><use transform="matrix(0.01953125,0,0,0.01953125,0,0)" xlink:href="#v"/><use transform="matrix(0.01953125,0,0,0.01953125,26.171875,0)" xlink:href="#s"/><use transform="matrix(0.01953125,0,0,0.01953125,50.15625,0)" xlink:href="#r"/></g><path d="M598-1118v154H368v674c0 100 37 144 132 144 23 0 62-6 92-12L629-6c-37 13-88 20-134 20-193 0-307-107-307-290v-688H20v-154h168v-266h180v266h230" id="w"/><path d="M611 442c-248 0-391-105-460-228l146-94c47 65 117 165 314 165 178 0 307-82 307-266v-224h-17C863-141 792-18 576-18c-268 0-472-195-472-546 0-346 197-568 476-568 216 0 288 133 326 193h17v-179h175V29c0 289-215 413-487 413zm-5-620c203 0 314-146 314-390 0-237-108-403-314-403-213 0-319 180-319 403 0 230 109 390 319 390" id="x"/><path d="M338-670V0H158v-1490h180v566c73-149 190-208 336-208 226 0 379 139 379 422V0H872v-695c0-172-96-275-252-275-161 0-282 109-282 300" id="y"/><path d="M158 0v-1118h174v172h12c41-113 157-188 290-188 26 0 70 2 91 3v181c-11-2-60-10-108-10-161 0-279 109-279 260V0H158" id="z"/><path d="M653-1490V0H466v-1314h-10L96-1047v-204l324-239h233" id="A"/><g id="d"><use transform="matrix(0.010850694444444444,0,0,0.010850694444444444,0,0)" xlink:href="#w"/><use transform="matrix(0.010850694444444444,0,0,0.010850694444444444,7.052951388888888,0)" xlink:href="#s"/><use transform="matrix(0.010850694444444444,0,0,0.010850694444444444,20.377604166666664,0)" xlink:href="#x"/><use transform="matrix(0.010850694444444444,0,0,0.010850694444444444,34.006076388888886,0)" xlink:href="#q"/><use transform="matrix(0.010850694444444444,0,0,0.010850694444444444,46.96180555555556,0)" xlink:href="#w"/><use transform="matrix(0.010850694444444444,0,0,0.010850694444444444,54.23177083333333,0)" xlink:href="#y"/><use transform="matrix(0.010850694444444444,0,0,0.010850694444444444,67.37196180555554,0)" xlink:href="#q"/><use transform="matrix(0.010850694444444444,0,0,0.010850694444444444,80.32769097222221,0)" xlink:href="#z"/><use transform="matrix(0.010850694444444444,0,0,0.010850694444444444,87.81467013888889,0)" xlink:href="#t"/><use transform="matrix(0.010850694444444444,0,0,0.010850694444444444,98.03602430555556,0)" xlink:href="#A"/></g><path d="M154 0v-137l495-537c165-179 249-281 249-418 0-156-121-253-280-253-170 0-278 110-278 278H158c0-264 200-443 465-443 266 0 455 183 455 416 0 161-73 288-336 568L416-179v12h687V0H154" id="B"/><g id="e"><use transform="matrix(0.010850694444444444,0,0,0.010850694444444444,0,0)" xlink:href="#w"/><use transform="matrix(0.010850694444444444,0,0,0.010850694444444444,7.052951388888888,0)" xlink:href="#s"/><use transform="matrix(0.010850694444444444,0,0,0.010850694444444444,20.377604166666664,0)" xlink:href="#x"/><use transform="matrix(0.010850694444444444,0,0,0.010850694444444444,34.006076388888886,0)" xlink:href="#q"/><use transform="matrix(0.010850694444444444,0,0,0.010850694444444444,46.96180555555556,0)" xlink:href="#w"/><use transform="matrix(0.010850694444444444,0,0,0.010850694444444444,54.23177083333333,0)" xlink:href="#y"/><use transform="matrix(0.010850694444444444,0,0,0.010850694444444444,67.37196180555554,0)" xlink:href="#q"/><use transform="matrix(0.010850694444444444,0,0,0.010850694444444444,80.32769097222221,0)" xlink:href="#z"/><use transform="matrix(0.010850694444444444,0,0,0.010850694444444444,87.81467013888889,0)" xlink:href="#t"/><use transform="matrix(0.010850694444444444,0,0,0.010850694444444444,97.28732638888889,0)" xlink:href="#B"/></g><path d="M120-303v-155l652-1032h231v1020h202v167h-202V0H821v-303H120zm702-167v-782h-12L323-482v12h499" id="C"/><g id="f"><use transform="matrix(0.010850694444444444,0,0,0.010850694444444444,0,0)" xlink:href="#r"/><use transform="matrix(0.010850694444444444,0,0,0.010850694444444444,13.606770833333332,0)" xlink:href="#s"/><use transform="matrix(0.010850694444444444,0,0,0.010850694444444444,26.931423611111104,0)" xlink:href="#r"/><use transform="matrix(0.010850694444444444,0,0,0.010850694444444444,40.53819444444444,0)" xlink:href="#t"/><use transform="matrix(0.010850694444444444,0,0,0.010850694444444444,50.75954861111111,0)" xlink:href="#C"/></g><path d="M626 20c-262 0-458-168-468-396h184c12 133 134 229 284 229 180 0 311-137 311-326 0-192-136-335-323-335-92 0-196 33-255 78l-178-22 88-738h784v167H429l-51 435h8c61-51 160-87 263-87 273 0 474 211 474 499 0 286-210 496-497 496" id="D"/><g id="g"><use transform="matrix(0.010850694444444444,0,0,0.010850694444444444,0,0)" xlink:href="#r"/><use transform="matrix(0.010850694444444444,0,0,0.010850694444444444,13.606770833333332,0)" xlink:href="#s"/><use transform="matrix(0.010850694444444444,0,0,0.010850694444444444,26.931423611111104,0)" xlink:href="#r"/><use transform="matrix(0.010850694444444444,0,0,0.010850694444444444,40.53819444444444,0)" xlink:href="#t"/><use transform="matrix(0.010850694444444444,0,0,0.010850694444444444,50.75954861111111,0)" xlink:href="#D"/></g><path d="M471 26C259 26 90-98 90-318c0-256 228-303 435-329 202-27 287-16 287-108 0-139-79-219-234-219-161 0-248 86-283 164l-173-57c86-203 278-265 451-265 150 0 419 46 419 395V0H815v-152h-12C765-73 660 26 471 26zm31-159c199 0 310-134 310-271v-155c-30 35-226 55-295 64-131 17-246 59-246 186 0 116 97 176 231 176" id="E"/><g id="h"><use transform="matrix(0.010850694444444444,0,0,0.010850694444444444,0,0)" xlink:href="#E"/><use transform="matrix(0.010850694444444444,0,0,0.010850694444444444,12.47829861111111,0)" xlink:href="#n"/><use transform="matrix(0.010850694444444444,0,0,0.010850694444444444,17.860243055555557,0)" xlink:href="#o"/><use transform="matrix(0.010850694444444444,0,0,0.010850694444444444,23.2421875,0)" xlink:href="#p"/><use transform="matrix(0.010850694444444444,0,0,0.010850694444444444,35.9375,0)" xlink:href="#q"/><use transform="matrix(0.010850694444444444,0,0,0.010850694444444444,48.893229166666664,0)" xlink:href="#t"/><use transform="matrix(0.010850694444444444,0,0,0.010850694444444444,58.86501736111111,0)" xlink:href="#u"/></g><g id="i"><use transform="matrix(0.010850694444444444,0,0,0.010850694444444444,0,0)" xlink:href="#E"/><use transform="matrix(0.010850694444444444,0,0,0.010850694444444444,12.47829861111111,0)" xlink:href="#n"/><use transform="matrix(0.010850694444444444,0,0,0.010850694444444444,17.860243055555557,0)" xlink:href="#o"/><use transform="matrix(0.010850694444444444,0,0,0.010850694444444444,23.2421875,0)" xlink:href="#p"/><use transform="matrix(0.010850694444444444,0,0,0.010850694444444444,35.9375,0)" xlink:href="#q"/><use transform="matrix(0.010850694444444444,0,0,0.010850694444444444,48.893229166666664,0)" xlink:href="#t"/><use transform="matrix(0.010850694444444444,0,0,0.010850694444444444,59.11458333333333,0)" xlink:href="#C"/></g><g id="j"><use transform="matrix(0.010850694444444444,0,0,0.010850694444444444,0,0)" xlink:href="#E"/><use transform="matrix(0.010850694444444444,0,0,0.010850694444444444,12.47829861111111,0)" xlink:href="#n"/><use transform="matrix(0.010850694444444444,0,0,0.010850694444444444,17.860243055555557,0)" xlink:href="#o"/><use transform="matrix(0.010850694444444444,0,0,0.010850694444444444,23.2421875,0)" xlink:href="#p"/><use transform="matrix(0.010850694444444444,0,0,0.010850694444444444,35.9375,0)" xlink:href="#q"/><use transform="matrix(0.010850694444444444,0,0,0.010850694444444444,48.893229166666664,0)" xlink:href="#t"/><use transform="matrix(0.010850694444444444,0,0,0.010850694444444444,59.11458333333333,0)" xlink:href="#D"/></g><path d="M158 0v-1118h175l1 205c55-151 181-225 313-225 147 0 245 90 285 228 53-141 190-228 352-228 194 0 352 125 352 384V0h-181v-749c0-161-105-225-225-225-151 0-243 103-243 244V0H807v-767c0-124-93-207-219-207-131 0-250 92-250 270V0H158" id="F"/><g id="k"><use transform="matrix(0.010850694444444444,0,0,0.010850694444444444,0,0)" xlink:href="#F"/><use transform="matrix(0.010850694444444444,0,0,0.010850694444444444,19.466145833333332,0)" xlink:href="#q"/><use transform="matrix(0.010850694444444444,0,0,0.010850694444444444,32.421875,0)" xlink:href="#z"/><use transform="matrix(0.010850694444444444,0,0,0.010850694444444444,40.41883680555555,0)" xlink:href="#x"/><use transform="matrix(0.010850694444444444,0,0,0.010850694444444444,54.04730902777778,0)" xlink:href="#q"/></g><path d="M200 0l662-1311v-12H98v-167h963v177L400 0H200" id="G"/><g id="l"><use transform="matrix(0.010850694444444444,0,0,0.010850694444444444,0,0)" xlink:href="#w"/><use transform="matrix(0.010850694444444444,0,0,0.010850694444444444,7.052951388888888,0)" xlink:href="#s"/><use transform="matrix(0.010850694444444444,0,0,0.010850694444444444,20.377604166666664,0)" xlink:href="#x"/><use transform="matrix(0.010850694444444444,0,0,0.010850694444444444,34.006076388888886,0)" xlink:href="#q"/><use transform="matrix(0.010850694444444444,0,0,0.010850694444444444,46.96180555555556,0)" xlink:href="#w"/><use transform="matrix(0.010850694444444444,0,0,0.010850694444444444,54.23177083333333,0)" xlink:href="#y"/><use transform="matrix(0.010850694444444444,0,0,0.010850694444444444,67.37196180555554,0)" xlink:href="#q"/><use transform="matrix(0.010850694444444444,0,0,0.010850694444444444,80.32769097222221,0)" xlink:href="#z"/><use transform="matrix(0.010850694444444444,0,0,0.010850694444444444,87.81467013888889,0)" xlink:href="#t"/><use transform="matrix(0.010850694444444444,0,0,0.010850694444444444,97.53689236111111,0)" xlink:href="#G"/></g></defs></g></svg>