<svg xmlns="http://www.w3.org/2000/svg" xmlns:xlink="http://www.w3.org/1999/xlink" xmlns:lucid="lucid" width="902" height="362"><g transform="translate(381 21)" lucid:page-tab-id="0_0"><path d="M-300 100c0 22.1-17.9 40-40 40s-40-17.9-40-40 17.9-40 40-40 40 17.9 40 40z" stroke="#000" stroke-width="2" fill="#fff"/><use xlink:href="#a" transform="matrix(1,0,0,1,-375,65) translate(30.48068576388889 43.40277777777778)"/><path d="M-80-14a6 6 0 0 1 6-6H74a6 6 0 0 1 6 6v48a6 6 0 0 1-6 6H-74a6 6 0 0 1-6-6z" stroke="#000" stroke-width="2" fill="#c3f7c8"/><use xlink:href="#b" transform="matrix(1,0,0,1,-75,-15) translate(-3.1195746527777857 33.083767361111114)"/><path d="M383.9 284.4A13.8 13.8 0 0 1 394 280h72a13.8 13.8 0 0 1 10.1 4.4l19.8 21.2a6.43 6.43 0 0 1 0 8.8l-19.8 21.2A13.8 13.8 0 0 1 466 340h-72a13.8 13.8 0 0 1-10.1-4.4l-19.8-21.2a6.43 6.43 0 0 1 0-8.8z" fill="#fe7070"/><path d="M418 280h24m12 0h12a13.8 13.8 0 0 1 10.1 4.4l6.6 7.06m6.6 7.08l6.6 7.07a6.43 6.43 0 0 1 0 8.8l-6.6 7.06m-6.6 7.08l-6.6 7.07A13.8 13.8 0 0 1 466 340h-12m-12 0h-24m-12 0h-12a13.8 13.8 0 0 1-10.1-4.4l-6.6-7.06m-6.6-7.08l-6.6-7.07a6.43 6.43 0 0 1 0-8.8l6.6-7.06m6.6-7.08l6.6-7.07A13.8 13.8 0 0 1 394 280h12" stroke="#000" stroke-width="2" fill="none"/><use xlink:href="#c" transform="matrix(1,0,0,1,365,285) translate(34.384340277777774 34.02777777777778)"/><path d="M-120 100c0 22.1-17.9 40-40 40s-40-17.9-40-40 17.9-40 40-40 40 17.9 40 40z" stroke="#000" stroke-width="2" fill="#fff"/><use xlink:href="#d" transform="matrix(1,0,0,1,-195,65) translate(28.223741319444443 43.40277777777778)"/><path d="M40 100c0 22.1-17.9 40-40 40s-40-17.9-40-40 17.9-40 40-40 40 17.9 40 40z" stroke="#000" stroke-width="2" fill="#fff"/><use xlink:href="#e" transform="matrix(1,0,0,1,-35,65) translate(28.13693576388889 43.40277777777778)"/><path d="M200 100c0 22.1-17.9 40-40 40s-40-17.9-40-40 17.9-40 40-40 40 17.9 40 40z" stroke="#000" stroke-width="2" fill="#fff"/><use xlink:href="#f" transform="matrix(1,0,0,1,125,65) translate(27.822265625 43.40277777777778)"/><path d="M360 100c0 22.1-17.9 40-40 40s-40-17.9-40-40 17.9-40 40-40 40 17.9 40 40zm-68.3-28.3l56.6 56.6m-56.6 0l56.6-56.6" stroke="#000" stroke-width="2" fill="#e81313"/><path d="M278.5 100h-4.28m-4.28 0h-8.55m-4.3 0h-8.55m-4.27 0H235.9m-4.07 0h-8.17m-4.08 0h-4.1" stroke="#3a414a" fill="none"/><path d="M279 100l.02.47h-.53v-.94h.53z" stroke="#3a414a" stroke-width=".05" fill="#3a414a"/><path d="M202 100l13-7.5v15z" stroke="#3a414a" fill="#3a414a"/><path d="M118.5 100h-5.25m-5.25 0H97.5m-5.25 0h-10.5m-5.26 0H66m-5.26 0H55.5" stroke="#3a414a" fill="none"/><path d="M119 100l.02.47h-.53v-.94h.53z" stroke="#3a414a" stroke-width=".05" fill="#3a414a"/><path d="M42 100l13-7.5v15z" stroke="#3a414a" fill="#3a414a"/><path d="M-41.5 100h-4.28m-4.28 0h-8.55m-4.3 0h-8.54m-4.28 0h-8.36m-4.1 0h-8.16m-4.08 0h-4.1" stroke="#3a414a" fill="none"/><path d="M-41 100l.02.47h-.53v-.94h.53z" stroke="#3a414a" stroke-width=".05" fill="#3a414a"/><path d="M-118 100l13-7.5v15z" stroke="#3a414a" fill="#3a414a"/><path d="M-201.5 100h-5.4m-5.38 0h-10.78m-5.38 0h-10.78m-5.4 0H-255.74m-5.75 0H-273m-5.76 0h-5.75" stroke="#3a414a" fill="none"/><path d="M-201 100l.02.47h-.53v-.94h.53z" stroke="#3a414a" stroke-width=".05" fill="#3a414a"/><path d="M-298 100l13-7.5v15z" stroke="#3a414a" fill="#3a414a"/><path d="M81.5 10h4.84m4.85 0h9.67m4.85 0h9.7m4.83 0h9.7m4.83 0h9.7m4.83 0h9.7m4.84 0h9.7m4.84 0h9.68m4.85 0h9.7m4.84 0h9.7m4.83 0h9.7m4.83 0h9.7m4.83 0h9.7m4.83 0h9.7m4.83 0h9.68m4.85 0h9.68m4.86 0H314a6 6 0 0 1 6 6v4.75m0 4.75V35m0 4.76v4.75" stroke="#3a414a" fill="none"/><path d="M81.5 10.47H81v-.95h.5z" stroke="#3a414a" stroke-width=".05" fill="#3a414a"/><path d="M320 58l-7.5-13h15z" stroke="#3a414a" fill="#3a414a"/><path d="M40 260c0 22.1-17.9 40-40 40s-40-17.9-40-40 17.9-40 40-40 40 17.9 40 40z" stroke="#000" stroke-width="2" fill="#fff"/><use xlink:href="#g" transform="matrix(1,0,0,1,-35,225) translate(28.10980902777778 43.40277777777778)"/><path d="M0 218.5v-4.28m0-4.28v-8.55m0-4.3v-8.54m0-4.28V175.9m0-4.07v-8.17m0-4.08v-4.1" stroke="#3a414a" fill="none"/><path d="M.47 219.03L0 219l-.47.02v-.53h.94z" stroke="#3a414a" stroke-width=".05" fill="#3a414a"/><path d="M0 142l7.5 13h-15z" stroke="#3a414a" fill="#3a414a"/><path d="M360 186a6 6 0 0 1 6-6h148a6 6 0 0 1 6 6v48a6 6 0 0 1-6 6H366a6 6 0 0 1-6-6z" stroke="#000" stroke-width="2" fill="#c3f7c8"/><use xlink:href="#h" transform="matrix(1,0,0,1,365,185) translate(11.246744791666671 34.02777777777778)"/><path d="M240 260c0 22.1-17.9 40-40 40s-40-17.9-40-40 17.9-40 40-40 40 17.9 40 40z" stroke="#000" stroke-width="2" fill="#fff"/><use xlink:href="#i" transform="matrix(1,0,0,1,165,225) translate(28.712022569444443 43.40277777777778)"/><path d="M358.5 210h-5.83m-5.84 0h-11.66m-5.84 0h-11.66m-5.84 0H306a6 6 0 0 0-6 6v4.22m0 4.22v8.45m0 4.2v8.46m0 4.22V254a6 6 0 0 1-6 6h-4.28m-4.28 0h-8.56m-4.27 0h-8.55m-4.28 0h-4.28" stroke="#3a414a" fill="none"/><path d="M359 210.47h-.5v-.94h.5z" stroke="#3a414a" stroke-width=".05" fill="#3a414a"/><path d="M242 260l13-7.5v15z" stroke="#3a414a" fill="#3a414a"/><path d="M360.86 310h-4.47m-4.48 0h-8.95m-4.48 0h-8.95m-4.48 0h-8.94m-4.48 0h-4.47a6 6 0 0 1-6-6v-4.22m0-4.22v-8.45m0-4.2v-8.46m0-4.22V266a6 6 0 0 0-6-6h-4.4m-4.42 0h-8.82m-4.4 0h-8.83m-4.4 0h-4.4" stroke="#3a414a" fill="none"/><path d="M361.36 310l.04.48h-.55v-.96h.55z" stroke="#3a414a" stroke-width=".05" fill="#3a414a"/><path d="M242 260l13-7.5v15z" stroke="#3a414a" fill="#3a414a"/><path d="M158.5 260.48h-4.9v-.96h4.9zm-9.8 0h-9.82v-.96h9.8zm-80.3 0h-3.1v-.96h3.1zm-8 0h-4.9v-.96h4.9zm73.57 0h-2.38v-.96h2.37z" stroke="#3a414a" stroke-width=".05" fill="#3a414a"/><path d="M159 260l.02.48h-.53v-.96h.53z" fill="#3a414a"/><path stroke="#3a414a" stroke-width=".05" fill="#3a414a"/><path d="M55 267.5L42 260l13-7.5z" fill="#3a414a"/><path d="M55.47 268.32L41.05 260l14.42-8.32zM42.95 260l11.57 6.68v-13.36z" stroke="#3a414a" stroke-width=".05" fill="#3a414a"/><use xlink:href="#j" transform="matrix(1,0,0,1,68.41145833333331,249.24479166666666) translate(0 17.22222222222222)"/><path d="M200.47 218.5h-.94v-5.42h.94zm0-10.83h-.94v-10.84h.94zm0-16.25h-.94v-.66h.94zm-40-17.44l.07.88.2.85.34.8.45.75.56.66.65.57.74.45.8.33.84.2.2.02v.95l-.35-.02-1-.24-.94-.4-.87-.52-.78-.66-.66-.77-.53-.86-.4-.94-.23-1-.07-.98v-6.2h.94zm0-12.32h-.94v-6.17h.94z" stroke="#3a414a" stroke-width=".05" fill="#3a414a"/><path d="M200.47 219.03L200 219l-.47.02v-.53h.94z" fill="#3a414a"/><path stroke="#3a414a" stroke-width=".05" fill="#3a414a"/><path d="M167.5 155h-15l7.5-13z" fill="#3a414a"/><path d="M168.32 155.47h-16.64l8.32-14.42zm-15-.95h13.36L160 142.95z" stroke="#3a414a" stroke-width=".05" fill="#3a414a"/><use xlink:href="#j" transform="matrix(1,0,0,1,165.32859680315738,169.24479166666666) translate(0 17.22222222222222)"/><defs><path d="M653-1490V0H466v-1314h-10L96-1047v-204l324-239h233" id="k"/><use transform="matrix(0.010850694444444444,0,0,0.010850694444444444,0,0)" xlink:href="#k" id="a"/><path d="M577 24c-279 0-473-224-473-580 0-354 195-576 474-576 218 0 287 134 324 193h14v-551h180V0H922v-173h-20C865-111 790 24 577 24zm27-161c203 0 314-172 314-421 0-247-108-413-314-413-212 0-317 181-317 413 0 235 108 421 317 421" id="l"/><path d="M628 24c-324 0-524-230-524-574 0-343 198-582 503-582 237 0 487 146 487 559v75H286c9 234 145 362 343 362 132 0 231-58 273-172l174 48C1024-91 857 24 628 24zM287-650h624c-17-190-120-322-304-322-192 0-309 151-320 322" id="m"/><path d="M678-1118v154H420V0H240v-964H20v-154h220v-149c0-194 155-293 318-293 85 0 141 18 168 30l-50 154c-19-6-47-17-97-17-111 0-159 58-159 166v109h258" id="n"/><path d="M471 26C259 26 90-98 90-318c0-256 228-303 435-329 202-27 287-16 287-108 0-139-79-219-234-219-161 0-248 86-283 164l-173-57c86-203 278-265 451-265 150 0 419 46 419 395V0H815v-152h-12C765-73 660 26 471 26zm31-159c199 0 310-134 310-271v-155c-30 35-226 55-295 64-131 17-246 59-246 186 0 116 97 176 231 176" id="o"/><path d="M537 14c-226 0-379-139-379-422v-710h180v695c0 172 97 275 253 275 160 0 281-109 281-300v-670h181V0H879v-209C806-46 684 14 537 14" id="p"/><path d="M338-1490V0H158v-1490h180" id="q"/><path d="M598-1118v154H368v674c0 100 37 144 132 144 23 0 62-6 92-12L629-6c-37 13-88 20-134 20-193 0-307-107-307-290v-688H20v-154h168v-266h180v266h230" id="r"/><path d="M798-719v166H144v-166h654" id="s"/><path d="M677 24c-213 0-288-135-325-197h-20V0H158v-1490h180v551h14c37-59 106-193 324-193 279 0 474 222 474 576 0 356-194 580-473 580zm-27-161c209 0 317-186 317-421 0-232-105-413-317-413-206 0-314 166-314 413 0 249 111 421 314 421" id="t"/><path d="M158 0v-1118h174v172h12c41-113 157-188 290-188 26 0 70 2 91 3v181c-11-2-60-10-108-10-161 0-279 109-279 260V0H158" id="u"/><path d="M338-670V0H158v-1118h173l1 207c72-158 192-221 342-221 226 0 378 139 378 422V0H872v-695c0-172-96-275-252-275-161 0-282 109-282 300" id="v"/><path d="M613 24c-304 0-509-231-509-576 0-350 205-580 509-580 216 0 392 114 453 309l-173 49c-33-115-133-197-280-197-223 0-326 196-326 419 0 220 103 415 326 415 150 0 252-85 285-206l172 49C1010-95 832 24 613 24" id="w"/><path d="M338-670V0H158v-1490h180v566c73-149 190-208 336-208 226 0 379 139 379 422V0H872v-695c0-172-96-275-252-275-161 0-282 109-282 300" id="x"/><g id="b"><use transform="matrix(0.010850694444444444,0,0,0.010850694444444444,0,0)" xlink:href="#l"/><use transform="matrix(0.010850694444444444,0,0,0.010850694444444444,13.606770833333332,0)" xlink:href="#m"/><use transform="matrix(0.010850694444444444,0,0,0.010850694444444444,26.5625,0)" xlink:href="#n"/><use transform="matrix(0.010850694444444444,0,0,0.010850694444444444,34.44010416666667,0)" xlink:href="#o"/><use transform="matrix(0.010850694444444444,0,0,0.010850694444444444,46.918402777777786,0)" xlink:href="#p"/><use transform="matrix(0.010850694444444444,0,0,0.010850694444444444,60.05859375000001,0)" xlink:href="#q"/><use transform="matrix(0.010850694444444444,0,0,0.010850694444444444,65.76605902777779,0)" xlink:href="#r"/><use transform="matrix(0.010850694444444444,0,0,0.010850694444444444,72.60199652777779,0)" xlink:href="#s"/><use transform="matrix(0.010850694444444444,0,0,0.010850694444444444,82.82335069444446,0)" xlink:href="#t"/><use transform="matrix(0.010850694444444444,0,0,0.010850694444444444,96.4301215277778,0)" xlink:href="#u"/><use transform="matrix(0.010850694444444444,0,0,0.010850694444444444,104.79600694444446,0)" xlink:href="#o"/><use transform="matrix(0.010850694444444444,0,0,0.010850694444444444,117.27430555555557,0)" xlink:href="#v"/><use transform="matrix(0.010850694444444444,0,0,0.010850694444444444,130.40364583333334,0)" xlink:href="#w"/><use transform="matrix(0.010850694444444444,0,0,0.010850694444444444,143.09895833333334,0)" xlink:href="#x"/></g><path d="M180 0v-1490h190v644h782v-644h190V0h-190v-678H370V0H180" id="y"/><path d="M180 0v-1490h908v168H370v486h669v168H370v500h727V0H180" id="z"/><path d="M52 0l541-1490h220L1361 0h-200l-149-416H398L254 0H52zm404-582h497c-103-290-145-390-251-756-108 377-145 460-246 756" id="A"/><path d="M645 0H180v-1490h484c435 0 692 280 692 742 0 466-257 748-711 748zM370-168h263c363 0 539-218 539-580 0-358-176-574-521-574H370v1154" id="B"/><g id="c"><use transform="matrix(0.010850694444444444,0,0,0.010850694444444444,0,0)" xlink:href="#y"/><use transform="matrix(0.010850694444444444,0,0,0.010850694444444444,16.514756944444443,0)" xlink:href="#z"/><use transform="matrix(0.010850694444444444,0,0,0.010850694444444444,29.871961805555554,0)" xlink:href="#A"/><use transform="matrix(0.010850694444444444,0,0,0.010850694444444444,45.20399305555556,0)" xlink:href="#B"/></g><path d="M154 0v-137l495-537c165-179 249-281 249-418 0-156-121-253-280-253-170 0-278 110-278 278H158c0-264 200-443 465-443 266 0 455 183 455 416 0 161-73 288-336 568L416-179v12h687V0H154" id="C"/><use transform="matrix(0.010850694444444444,0,0,0.010850694444444444,0,0)" xlink:href="#C" id="d"/><path d="M635 20c-292 0-500-160-510-396h192c11 142 145 229 315 229 187 0 323-105 323-260 0-161-125-274-346-274H488v-165h121c174 0 294-100 294-254 0-148-104-245-266-245-152 0-291 85-297 230H157c8-234 222-395 484-395 278 0 448 188 448 400 0 168-95 291-247 336v12c190 31 301 169 301 357 0 244-216 425-508 425" id="D"/><use transform="matrix(0.010850694444444444,0,0,0.010850694444444444,0,0)" xlink:href="#D" id="e"/><path d="M120-303v-155l652-1032h231v1020h202v167h-202V0H821v-303H120zm702-167v-782h-12L323-482v12h499" id="E"/><use transform="matrix(0.010850694444444444,0,0,0.010850694444444444,0,0)" xlink:href="#E" id="f"/><path d="M646 20c-249 0-524-159-524-708 0-524 209-822 547-822 250 0 431 161 467 395H950c-33-129-126-227-281-227-229 0-367 208-367 566h12c80-124 212-198 367-198 255 0 467 205 467 493 0 278-198 501-502 501zm0-167c179 0 318-148 318-334 0-182-133-328-313-328-181 0-322 156-322 330 0 176 134 332 317 332" id="F"/><use transform="matrix(0.010850694444444444,0,0,0.010850694444444444,0,0)" xlink:href="#F" id="g"/><path d="M409 0L70-1118h191c89 329 165 560 243 925 75-353 154-601 240-925h192c85 325 161 564 235 922 77-354 157-598 244-922h191L1267 0h-179c-86-307-176-590-250-913C763-588 675-308 588 0H409" id="G"/><g id="h"><use transform="matrix(0.010850694444444444,0,0,0.010850694444444444,0,0)" xlink:href="#v"/><use transform="matrix(0.010850694444444444,0,0,0.010850694444444444,13.129340277777777,0)" xlink:href="#m"/><use transform="matrix(0.010850694444444444,0,0,0.010850694444444444,25.68359375,0)" xlink:href="#G"/><use transform="matrix(0.010850694444444444,0,0,0.010850694444444444,43.869357638888886,0)" xlink:href="#s"/><use transform="matrix(0.010850694444444444,0,0,0.010850694444444444,54.09071180555556,0)" xlink:href="#t"/><use transform="matrix(0.010850694444444444,0,0,0.010850694444444444,67.69748263888889,0)" xlink:href="#u"/><use transform="matrix(0.010850694444444444,0,0,0.010850694444444444,76.06336805555556,0)" xlink:href="#o"/><use transform="matrix(0.010850694444444444,0,0,0.010850694444444444,88.54166666666667,0)" xlink:href="#v"/><use transform="matrix(0.010850694444444444,0,0,0.010850694444444444,101.67100694444444,0)" xlink:href="#w"/><use transform="matrix(0.010850694444444444,0,0,0.010850694444444444,114.36631944444444,0)" xlink:href="#x"/></g><path d="M200 0l662-1311v-12H98v-167h963v177L400 0H200" id="H"/><use transform="matrix(0.010850694444444444,0,0,0.010850694444444444,0,0)" xlink:href="#H" id="i"/><path fill="#333" d="M135 0v-1490h468l242 684c30 94 76 293 111 455 34-161 80-360 110-455l238-684h470V0h-307c0-447-3-765 11-1227-122 503-246 788-395 1227H826C676-435 552-717 427-1215c15 453 11 775 11 1215H135" id="I"/><path fill="#333" d="M135 0v-1490h997v253H440v360h640v249H440v375h694V0H135" id="J"/><path fill="#333" d="M135 0v-1490h581c339 0 533 192 533 485 0 204-94 351-264 424L1302 0H964L680-532H440V0H135zm305-779h220c186 0 274-77 274-226 0-150-88-233-275-233H440v459" id="K"/><path fill="#333" d="M795 20C377 20 94-272 94-743c0-483 302-767 694-767 335 0 593 206 635 500h-310c-42-142-154-229-320-229-230 0-389 177-389 493s154 495 393 495c212 0 340-120 345-311H818v-232h620v186c0 391-269 628-643 628" id="L"/><g id="j"><use transform="matrix(0.008680555555555556,0,0,0.008680555555555556,0,0)" xlink:href="#I"/><use transform="matrix(0.008680555555555556,0,0,0.008680555555555556,16.5625,0)" xlink:href="#J"/><use transform="matrix(0.008680555555555556,0,0,0.008680555555555556,27.36111111111111,0)" xlink:href="#K"/><use transform="matrix(0.008680555555555556,0,0,0.008680555555555556,39.036458333333336,0)" xlink:href="#L"/><use transform="matrix(0.008680555555555556,0,0,0.008680555555555556,52.378472222222236,0)" xlink:href="#J"/></g></defs></g></svg>