<svg xmlns="http://www.w3.org/2000/svg" xmlns:xlink="http://www.w3.org/1999/xlink" xmlns:lucid="lucid" width="409.14" height="577.9"><g transform="translate(460 56.898020833333334)" lucid:page-tab-id="0_0"><path d="M-300 100c0 22.1-17.9 40-40 40s-40-17.9-40-40 17.9-40 40-40 40 17.9 40 40z" stroke="#000" stroke-width="2" fill="#fff"/><use xlink:href="#a" transform="matrix(1,0,0,1,-375,65) translate(30.48068576388889 43.40277777777778)"/><path d="M-240 166a6 6 0 0 1 6-6h148a6 6 0 0 1 6 6v48a6 6 0 0 1-6 6h-148a6 6 0 0 1-6-6z" stroke="#000" stroke-width="2" fill="#c3f7c8"/><use xlink:href="#b" transform="matrix(1,0,0,1,-235,165) translate(-3.1195746527777857 33.083767361111114)"/><path d="M-241.5 190h-5.14m-5.14 0h-10.28m-5.13 0h-10.27m-5.14 0h-10.3m-5.13 0h-10.28m-5.14 0h-10.28m-5.14 0H-334a6 6 0 0 1-6-6v-4.75m0-4.75V165m0-4.76v-4.75" stroke="#3a414a" fill="none"/><path d="M-241 190.47h-.5v-.94h.5z" stroke="#3a414a" stroke-width=".05" fill="#3a414a"/><path d="M-340 142l7.5 13h-15z" stroke="#3a414a" fill="#3a414a"/><path d="M-206.1-15.6A13.8 13.8 0 0 1-196-20h72a13.8 13.8 0 0 1 10.1 4.4l19.8 21.2a6.43 6.43 0 0 1 0 8.8l-19.8 21.2A13.8 13.8 0 0 1-124 40h-72a13.8 13.8 0 0 1-10.1-4.4l-19.8-21.2a6.43 6.43 0 0 1 0-8.8z" fill="#fe7070"/><path d="M-172-20h24m12 0h12a13.8 13.8 0 0 1 10.1 4.4l6.6 7.06m6.6 7.08l6.6 7.07a6.43 6.43 0 0 1 0 8.8l-6.6 7.06m-6.6 7.08l-6.6 7.07A13.8 13.8 0 0 1-124 40h-12m-12 0h-24m-12 0h-12a13.8 13.8 0 0 1-10.1-4.4l-6.6-7.06m-6.6-7.08l-6.6-7.07a6.43 6.43 0 0 1 0-8.8l6.6-7.06m6.6-7.08l6.6-7.07A13.8 13.8 0 0 1-196-20h12" stroke="#000" stroke-width="2" fill="none"/><use xlink:href="#c" transform="matrix(1,0,0,1,-225,-15) translate(34.384340277777774 34.02777777777778)"/><path d="M-229.14 10h-5m-5 0h-9.97m-5 0h-10m-4.98 0h-10m-5 0h-9.97m-5 0h-9.98m-5 0H-324m-5 0h-5a6 6 0 0 0-6 6v4.75m0 4.75V35m0 4.76v4.75" stroke="#3a414a" fill="none"/><path d="M-228.64 10l.04.47h-.55v-.95h.55z" stroke="#3a414a" stroke-width=".05" fill="#3a414a"/><path d="M-340 58l-7.5-13h15z" stroke="#3a414a" fill="#3a414a"/><path d="M-300 400c0 22.1-17.9 40-40 40s-40-17.9-40-40 17.9-40 40-40 40 17.9 40 40z" stroke="#000" stroke-width="2" fill="#fff"/><use xlink:href="#a" transform="matrix(1,0,0,1,-375,365) translate(30.48068576388889 43.40277777777778)"/><path d="M-240 466a6 6 0 0 1 6-6h148a6 6 0 0 1 6 6v48a6 6 0 0 1-6 6h-148a6 6 0 0 1-6-6z" stroke="#000" stroke-width="2" fill="#c3f7c8"/><use xlink:href="#b" transform="matrix(1,0,0,1,-235.00000000000003,465) translate(-3.1195746527777857 33.083767361111114)"/><path d="M-206.1 284.4A13.8 13.8 0 0 1-196 280h72a13.8 13.8 0 0 1 10.1 4.4l19.8 21.2a6.43 6.43 0 0 1 0 8.8l-19.8 21.2A13.8 13.8 0 0 1-124 340h-72a13.8 13.8 0 0 1-10.1-4.4l-19.8-21.2a6.43 6.43 0 0 1 0-8.8z" fill="#fe7070"/><path d="M-172 280h24m12 0h12a13.8 13.8 0 0 1 10.1 4.4l6.6 7.06m6.6 7.08l6.6 7.07a6.43 6.43 0 0 1 0 8.8l-6.6 7.06m-6.6 7.08l-6.6 7.07A13.8 13.8 0 0 1-124 340h-12m-12 0h-24m-12 0h-12a13.8 13.8 0 0 1-10.1-4.4l-6.6-7.06m-6.6-7.08l-6.6-7.07a6.43 6.43 0 0 1 0-8.8l6.6-7.06m6.6-7.08l6.6-7.07A13.8 13.8 0 0 1-196 280h12" stroke="#000" stroke-width="2" fill="none"/><use xlink:href="#c" transform="matrix(1,0,0,1,-225.00000000000003,285) translate(34.384340277777774 34.02777777777778)"/><path d="M-120 400c0 22.1-17.9 40-40 40s-40-17.9-40-40 17.9-40 40-40 40 17.9 40 40z" stroke="#000" stroke-width="2" fill="#fff"/><use xlink:href="#d" transform="matrix(1,0,0,1,-195.00000000000003,365) translate(28.223741319444443 43.40277777777778)"/><path d="M-90.86 310h5.58m5.58 0h11.17m5.58 0h5.6a6 6 0 0 1 6 6v5.2m0 5.2v10.4m0 5.2v10.4m0 5.2V368m0 5.2v10.4m0 5.2v5.2a6 6 0 0 1-6 6h-5.25m-5.24 0h-10.48m-5.24 0h-10.47m-5.24 0h-5.24" stroke="#3a414a" fill="none"/><path d="M-90.85 310.48h-.55l.04-.48-.04-.48h.55z" stroke="#3a414a" stroke-width=".05" fill="#3a414a"/><path d="M-118 400l13-7.5v15z" stroke="#3a414a" fill="#3a414a"/><path d="M-201.5 400h-4.6m-4.62 0h-9.23m-4.6 0h-9.23m-4.6 0h-9.24m-4.6 0h-9.23m-4.6 0h-9.24m-4.6 0h-4.6" stroke="#3a414a" fill="none"/><path d="M-201 400l.02.48h-.53v-.96h.53z" stroke="#3a414a" stroke-width=".05" fill="#3a414a"/><path d="M-298 400l13-7.5v15z" stroke="#3a414a" fill="#3a414a"/><path d="M-78.5 490h7.05m7.04 0h7.04a6 6 0 0 0 6-6v-5.2m0-5.2v-10.4m0-5.2v-10.4m0-5.2V432m0-5.2v-10.4m0-5.2V406a6 6 0 0 0-6-6h-5.24m-5.24 0h-10.48m-5.24 0h-10.47m-5.24 0h-5.24" stroke="#3a414a" fill="none"/><path d="M-78.5 490.48h-.5v-.96h.5z" stroke="#3a414a" stroke-width=".05" fill="#3a414a"/><path d="M-118 400l13-7.5v15z" stroke="#3a414a" fill="#3a414a"/><path d="M-460-50.9a6 6 0 0 1 6-6h142.36a6 6 0 0 1 6 6V-26a6 6 0 0 1-6 6H-454a6 6 0 0 1-6-6z" fill="none"/><use xlink:href="#e" transform="matrix(1,0,0,1,-455,-51.898020833333334) translate(0 21.58376736111111)"/><use xlink:href="#f" transform="matrix(1,0,0,1,-455,-51.898020833333334) translate(66.74262152777777 21.58376736111111)"/><path d="M-460 266a6 6 0 0 1 6-6h172.63a6 6 0 0 1 6 6v24.9a6 6 0 0 1-6 6H-454a6 6 0 0 1-6-6z" fill="none"/><use xlink:href="#g" transform="matrix(1,0,0,1,-455,265) translate(0 21.58376736111111)"/><use xlink:href="#f" transform="matrix(1,0,0,1,-455,265) translate(97.01605902777777 21.58376736111111)"/><defs><path d="M653-1490V0H466v-1314h-10L96-1047v-204l324-239h233" id="h"/><use transform="matrix(0.010850694444444444,0,0,0.010850694444444444,0,0)" xlink:href="#h" id="a"/><path d="M577 24c-279 0-473-224-473-580 0-354 195-576 474-576 218 0 287 134 324 193h14v-551h180V0H922v-173h-20C865-111 790 24 577 24zm27-161c203 0 314-172 314-421 0-247-108-413-314-413-212 0-317 181-317 413 0 235 108 421 317 421" id="i"/><path d="M628 24c-324 0-524-230-524-574 0-343 198-582 503-582 237 0 487 146 487 559v75H286c9 234 145 362 343 362 132 0 231-58 273-172l174 48C1024-91 857 24 628 24zM287-650h624c-17-190-120-322-304-322-192 0-309 151-320 322" id="j"/><path d="M678-1118v154H420V0H240v-964H20v-154h220v-149c0-194 155-293 318-293 85 0 141 18 168 30l-50 154c-19-6-47-17-97-17-111 0-159 58-159 166v109h258" id="k"/><path d="M471 26C259 26 90-98 90-318c0-256 228-303 435-329 202-27 287-16 287-108 0-139-79-219-234-219-161 0-248 86-283 164l-173-57c86-203 278-265 451-265 150 0 419 46 419 395V0H815v-152h-12C765-73 660 26 471 26zm31-159c199 0 310-134 310-271v-155c-30 35-226 55-295 64-131 17-246 59-246 186 0 116 97 176 231 176" id="l"/><path d="M537 14c-226 0-379-139-379-422v-710h180v695c0 172 97 275 253 275 160 0 281-109 281-300v-670h181V0H879v-209C806-46 684 14 537 14" id="m"/><path d="M338-1490V0H158v-1490h180" id="n"/><path d="M598-1118v154H368v674c0 100 37 144 132 144 23 0 62-6 92-12L629-6c-37 13-88 20-134 20-193 0-307-107-307-290v-688H20v-154h168v-266h180v266h230" id="o"/><path d="M798-719v166H144v-166h654" id="p"/><path d="M677 24c-213 0-288-135-325-197h-20V0H158v-1490h180v551h14c37-59 106-193 324-193 279 0 474 222 474 576 0 356-194 580-473 580zm-27-161c209 0 317-186 317-421 0-232-105-413-317-413-206 0-314 166-314 413 0 249 111 421 314 421" id="q"/><path d="M158 0v-1118h174v172h12c41-113 157-188 290-188 26 0 70 2 91 3v181c-11-2-60-10-108-10-161 0-279 109-279 260V0H158" id="r"/><path d="M338-670V0H158v-1118h173l1 207c72-158 192-221 342-221 226 0 378 139 378 422V0H872v-695c0-172-96-275-252-275-161 0-282 109-282 300" id="s"/><path d="M613 24c-304 0-509-231-509-576 0-350 205-580 509-580 216 0 392 114 453 309l-173 49c-33-115-133-197-280-197-223 0-326 196-326 419 0 220 103 415 326 415 150 0 252-85 285-206l172 49C1010-95 832 24 613 24" id="t"/><path d="M338-670V0H158v-1490h180v566c73-149 190-208 336-208 226 0 379 139 379 422V0H872v-695c0-172-96-275-252-275-161 0-282 109-282 300" id="u"/><g id="b"><use transform="matrix(0.010850694444444444,0,0,0.010850694444444444,0,0)" xlink:href="#i"/><use transform="matrix(0.010850694444444444,0,0,0.010850694444444444,13.606770833333332,0)" xlink:href="#j"/><use transform="matrix(0.010850694444444444,0,0,0.010850694444444444,26.5625,0)" xlink:href="#k"/><use transform="matrix(0.010850694444444444,0,0,0.010850694444444444,34.44010416666667,0)" xlink:href="#l"/><use transform="matrix(0.010850694444444444,0,0,0.010850694444444444,46.918402777777786,0)" xlink:href="#m"/><use transform="matrix(0.010850694444444444,0,0,0.010850694444444444,60.05859375000001,0)" xlink:href="#n"/><use transform="matrix(0.010850694444444444,0,0,0.010850694444444444,65.76605902777779,0)" xlink:href="#o"/><use transform="matrix(0.010850694444444444,0,0,0.010850694444444444,72.60199652777779,0)" xlink:href="#p"/><use transform="matrix(0.010850694444444444,0,0,0.010850694444444444,82.82335069444446,0)" xlink:href="#q"/><use transform="matrix(0.010850694444444444,0,0,0.010850694444444444,96.4301215277778,0)" xlink:href="#r"/><use transform="matrix(0.010850694444444444,0,0,0.010850694444444444,104.79600694444446,0)" xlink:href="#l"/><use transform="matrix(0.010850694444444444,0,0,0.010850694444444444,117.27430555555557,0)" xlink:href="#s"/><use transform="matrix(0.010850694444444444,0,0,0.010850694444444444,130.40364583333334,0)" xlink:href="#t"/><use transform="matrix(0.010850694444444444,0,0,0.010850694444444444,143.09895833333334,0)" xlink:href="#u"/></g><path d="M180 0v-1490h190v644h782v-644h190V0h-190v-678H370V0H180" id="v"/><path d="M180 0v-1490h908v168H370v486h669v168H370v500h727V0H180" id="w"/><path d="M52 0l541-1490h220L1361 0h-200l-149-416H398L254 0H52zm404-582h497c-103-290-145-390-251-756-108 377-145 460-246 756" id="x"/><path d="M645 0H180v-1490h484c435 0 692 280 692 742 0 466-257 748-711 748zM370-168h263c363 0 539-218 539-580 0-358-176-574-521-574H370v1154" id="y"/><g id="c"><use transform="matrix(0.010850694444444444,0,0,0.010850694444444444,0,0)" xlink:href="#v"/><use transform="matrix(0.010850694444444444,0,0,0.010850694444444444,16.514756944444443,0)" xlink:href="#w"/><use transform="matrix(0.010850694444444444,0,0,0.010850694444444444,29.871961805555554,0)" xlink:href="#x"/><use transform="matrix(0.010850694444444444,0,0,0.010850694444444444,45.20399305555556,0)" xlink:href="#y"/></g><path d="M154 0v-137l495-537c165-179 249-281 249-418 0-156-121-253-280-253-170 0-278 110-278 278H158c0-264 200-443 465-443 266 0 455 183 455 416 0 161-73 288-336 568L416-179v12h687V0H154" id="z"/><use transform="matrix(0.010850694444444444,0,0,0.010850694444444444,0,0)" xlink:href="#z" id="d"/><path d="M158 418v-1536h174v179h20c37-59 106-193 324-193 279 0 474 222 474 576 0 356-194 580-473 580-213 0-288-135-325-197h-14v591H158zm492-555c209 0 317-186 317-421 0-232-105-413-317-413-206 0-314 166-314 413 0 249 111 421 314 421" id="A"/><path d="M158 0v-1118h180V0H158zm91-1301c-68 0-125-53-125-119s57-119 125-119c69 0 126 53 126 119s-57 119-126 119" id="B"/><path d="M158 0v-1118h175l1 205c55-151 181-225 313-225 147 0 245 90 285 228 53-141 190-228 352-228 194 0 352 125 352 384V0h-181v-749c0-161-105-225-225-225-151 0-243 103-243 244V0H807v-767c0-124-93-207-219-207-131 0-250 92-250 270V0H158" id="C"/><path d="M613 24c-304 0-509-231-509-576 0-350 205-580 509-580 305 0 511 230 511 580 0 345-206 576-511 576zm0-161c226 0 329-195 329-415 0-222-103-419-329-419-223 0-326 196-326 419 0 220 103 415 326 415" id="D"/><g id="e"><use transform="matrix(0.010850694444444444,0,0,0.010850694444444444,0,0)" xlink:href="#A"/><use transform="matrix(0.010850694444444444,0,0,0.010850694444444444,13.606770833333332,0)" xlink:href="#r"/><use transform="matrix(0.010850694444444444,0,0,0.010850694444444444,22.31987847222222,0)" xlink:href="#B"/><use transform="matrix(0.010850694444444444,0,0,0.010850694444444444,27.701822916666664,0)" xlink:href="#C"/><use transform="matrix(0.010850694444444444,0,0,0.010850694444444444,47.16796875,0)" xlink:href="#D"/></g><g id="f"><use transform="matrix(0.010850694444444444,0,0,0.010850694444444444,0,0)" xlink:href="#t"/><use transform="matrix(0.010850694444444444,0,0,0.010850694444444444,12.6953125,0)" xlink:href="#D"/><use transform="matrix(0.010850694444444444,0,0,0.010850694444444444,26.01996527777778,0)" xlink:href="#C"/><use transform="matrix(0.010850694444444444,0,0,0.010850694444444444,45.48611111111111,0)" xlink:href="#C"/><use transform="matrix(0.010850694444444444,0,0,0.010850694444444444,64.95225694444444,0)" xlink:href="#B"/><use transform="matrix(0.010850694444444444,0,0,0.010850694444444444,70.33420138888889,0)" xlink:href="#o"/></g><path d="M538 24C308 24 148-78 108-271l171-41c32 123 123 178 257 178 156 0 256-77 256-169 0-77-54-128-164-154l-186-44c-203-48-300-148-300-305 0-192 176-326 414-326 230 0 351 112 402 269l-163 42c-31-80-94-158-238-158-133 0-233 69-233 162 0 83 57 129 188 160l169 40c203 48 298 149 298 302 0 196-179 339-441 339" id="E"/><g id="g"><use transform="matrix(0.010850694444444444,0,0,0.010850694444444444,0,0)" xlink:href="#E"/><use transform="matrix(0.010850694444444444,0,0,0.010850694444444444,11.729600694444445,0)" xlink:href="#j"/><use transform="matrix(0.010850694444444444,0,0,0.010850694444444444,24.68532986111111,0)" xlink:href="#t"/><use transform="matrix(0.010850694444444444,0,0,0.010850694444444444,37.380642361111114,0)" xlink:href="#D"/><use transform="matrix(0.010850694444444444,0,0,0.010850694444444444,50.7052951388889,0)" xlink:href="#s"/><use transform="matrix(0.010850694444444444,0,0,0.010850694444444444,63.83463541666667,0)" xlink:href="#i"/><use transform="matrix(0.010850694444444444,0,0,0.010850694444444444,77.44140625,0)" xlink:href="#D"/></g></defs></g></svg>