<svg xmlns="http://www.w3.org/2000/svg" xmlns:xlink="http://www.w3.org/1999/xlink" xmlns:lucid="lucid" width="642" height="362"><g transform="translate(381 -59)" lucid:page-tab-id="0_0"><path d="M-300 100c0 22.1-17.9 40-40 40s-40-17.9-40-40 17.9-40 40-40 40 17.9 40 40z" stroke="#000" stroke-width="2" fill="#fff"/><use xlink:href="#a" transform="matrix(1,0,0,1,-375,65) translate(30.48068576388889 43.40277777777778)"/><path d="M100 166a6 6 0 0 1 6-6h148a6 6 0 0 1 6 6v48a6 6 0 0 1-6 6H106a6 6 0 0 1-6-6z" stroke="#000" stroke-width="2" fill="#c3f7c8"/><use xlink:href="#b" transform="matrix(1,0,0,1,105,165) translate(49.77213541666667 34.02777777777778)"/><path d="M123.9 284.4A13.8 13.8 0 0 1 134 280h72a13.8 13.8 0 0 1 10.1 4.4l19.8 21.2a6.43 6.43 0 0 1 0 8.8l-19.8 21.2A13.8 13.8 0 0 1 206 340h-72a13.8 13.8 0 0 1-10.1-4.4l-19.8-21.2a6.43 6.43 0 0 1 0-8.8z" fill="#fe7070"/><path d="M158 280h24m12 0h12a13.8 13.8 0 0 1 10.1 4.4l6.6 7.06m6.6 7.08l6.6 7.07a6.43 6.43 0 0 1 0 8.8l-6.6 7.06m-6.6 7.08l-6.6 7.07A13.8 13.8 0 0 1 206 340h-12m-12 0h-24m-12 0h-12a13.8 13.8 0 0 1-10.1-4.4l-6.6-7.06m-6.6-7.08l-6.6-7.07a6.43 6.43 0 0 1 0-8.8l6.6-7.06m6.6-7.08l6.6-7.07A13.8 13.8 0 0 1 134 280h12" stroke="#000" stroke-width="2" fill="none"/><use xlink:href="#c" transform="matrix(1,0,0,1,105,285) translate(34.384340277777774 34.02777777777778)"/><path d="M-140 100c0 22.1-17.9 40-40 40s-40-17.9-40-40 17.9-40 40-40 40 17.9 40 40z" stroke="#000" stroke-width="2" fill="#fff"/><use xlink:href="#d" transform="matrix(1,0,0,1,-215,65) translate(28.223741319444443 43.40277777777778)"/><path d="M20 100c0 22.1-17.9 40-40 40s-40-17.9-40-40 17.9-40 40-40 40 17.9 40 40z" stroke="#000" stroke-width="2" fill="#fff"/><use xlink:href="#e" transform="matrix(1,0,0,1,-55,65) translate(28.13693576388889 43.40277777777778)"/><path d="M-300 260c0 22.1-17.9 40-40 40s-40-17.9-40-40 17.9-40 40-40 40 17.9 40 40z" stroke="#000" stroke-width="2" fill="#fff"/><use xlink:href="#f" transform="matrix(1,0,0,1,-375,225) translate(24.491102430555557 43.40277777777778)"/><path d="M-61.5 100h-4.28m-4.28 0h-8.55m-4.3 0h-8.54m-4.28 0h-8.36m-4.1 0h-8.16m-4.08 0h-4.1" stroke="#3a414a" fill="none"/><path d="M-61 100l.02.47h-.53v-.94h.53z" stroke="#3a414a" stroke-width=".05" fill="#3a414a"/><path d="M-138 100l13-7.5v15z" stroke="#3a414a" fill="#3a414a"/><path d="M-221.5 100h-4.28m-4.28 0h-8.55m-4.3 0h-8.54m-4.28 0h-8.36m-4.1 0h-8.16m-4.08 0h-4.1" stroke="#3a414a" fill="none"/><path d="M-221 100l.02.47h-.53v-.94h.53z" stroke="#3a414a" stroke-width=".05" fill="#3a414a"/><path d="M-298 100l13-7.5v15z" stroke="#3a414a" fill="#3a414a"/><path d="M-140 260c0 22.1-17.9 40-40 40s-40-17.9-40-40 17.9-40 40-40 40 17.9 40 40z" stroke="#000" stroke-width="2" fill="#fff"/><use xlink:href="#g" transform="matrix(1,0,0,1,-215,225) translate(24.91427951388889 43.40277777777778)"/><path d="M-100 366a6 6 0 0 1 6-6H54a6 6 0 0 1 6 6v48a6 6 0 0 1-6 6H-94a6 6 0 0 1-6-6z" stroke="#000" stroke-width="2" fill="#c3f7c8"/><use xlink:href="#h" transform="matrix(1,0,0,1,-95,365) translate(11.246744791666671 34.02777777777778)"/><path d="M20 260c0 22.1-17.9 40-40 40s-40-17.9-40-40 17.9-40 40-40 40 17.9 40 40z" stroke="#000" stroke-width="2" fill="#fff"/><use xlink:href="#i" transform="matrix(1,0,0,1,-55,225) translate(24.778645833333336 43.40277777777778)"/><path d="M-20 358.5v-4.78m0-4.78v-9.56m0-4.77v-9.55m0-4.78v-4.78" stroke="#3a414a" fill="none"/><path d="M-19.52 359h-.96v-.5h.96z" stroke="#3a414a" stroke-width=".05" fill="#3a414a"/><path d="M-20 302l7.5 13h-15z" stroke="#3a414a" fill="#3a414a"/><path d="M-61.5 260h-5.25m-5.25 0h-10.5m-5.25 0h-10.5m-5.26 0H-114m-5.26 0h-5.25" stroke="#3a414a" fill="none"/><path d="M-61 260l.02.48h-.53v-.96h.53z" stroke="#3a414a" stroke-width=".05" fill="#3a414a"/><path d="M-138 260l13-7.5v15z" stroke="#3a414a" fill="#3a414a"/><path d="M-221.5 260h-5.25m-5.25 0h-10.5m-5.25 0h-10.5m-5.26 0H-274m-5.26 0h-5.25" stroke="#3a414a" fill="none"/><path d="M-221 260l.02.48h-.53v-.96h.53z" stroke="#3a414a" stroke-width=".05" fill="#3a414a"/><path d="M-298 260l13-7.5v15z" stroke="#3a414a" fill="#3a414a"/><path d="M-340 218.5v-5.42m0-5.4v-10.85m0-5.4V186a6 6 0 0 1 6-6h4.9m4.88 0h9.78m4.88 0h9.78m4.9 0h9.77m4.88 0h9.78m4.88 0h9.78m4.9 0h9.77m4.88 0h9.78m4.88 0h9.78m4.9 0h9.77m4.88 0h9.78m4.88 0h9.78m4.9 0h9.77m4.88 0h9.78m4.88 0h9.78m4.9 0h9.77m4.88 0h9.78m4.88 0h9.78m4.9 0h9.77m4.88 0h9.78m4.88 0h9.78m4.9 0H-26a6 6 0 0 0 6-6v-6.17m0-6.17v-6.17" stroke="#3a414a" fill="none"/><path d="M-339.52 219.03l-.47-.03-.48.02v-.53h.96z" stroke="#3a414a" stroke-width=".05" fill="#3a414a"/><path d="M-20 142l7.5 13h-15z" stroke="#3a414a" fill="#3a414a"/><path d="M100.86 310h-5.6m-5.63 0H78.42m-5.6 0h-5.62a6 6 0 0 1-6-6v-4.22m0-4.22v-8.45m0-4.2v-8.46m0-4.22V266a6 6 0 0 0-6-6h-6.56m-6.57 0H35.5" stroke="#3a414a" fill="none"/><path d="M101.36 310l.04.48h-.55v-.96h.55z" stroke="#3a414a" stroke-width=".05" fill="#3a414a"/><path d="M22 260l13-7.5v15z" stroke="#3a414a" fill="#3a414a"/><path d="M98.5 190h-5.42m-5.4 0H76.82m-5.4 0H66a6 6 0 0 0-6 6v4.83m0 4.84v9.66m0 4.84v9.66m0 4.84v9.66m0 4.84V254a6 6 0 0 1-6 6h-6.17m-6.17 0H35.5" stroke="#3a414a" fill="none"/><path d="M99 190.47h-.5v-.94h.5z" stroke="#3a414a" stroke-width=".05" fill="#3a414a"/><path d="M22 260l13-7.5v15z" stroke="#3a414a" fill="#3a414a"/><defs><path d="M653-1490V0H466v-1314h-10L96-1047v-204l324-239h233" id="j"/><use transform="matrix(0.010850694444444444,0,0,0.010850694444444444,0,0)" xlink:href="#j" id="a"/><path d="M158 0v-1118h175l1 205c55-151 181-225 313-225 147 0 245 90 285 228 53-141 190-228 352-228 194 0 352 125 352 384V0h-181v-749c0-161-105-225-225-225-151 0-243 103-243 244V0H807v-767c0-124-93-207-219-207-131 0-250 92-250 270V0H158" id="k"/><path d="M471 26C259 26 90-98 90-318c0-256 228-303 435-329 202-27 287-16 287-108 0-139-79-219-234-219-161 0-248 86-283 164l-173-57c86-203 278-265 451-265 150 0 419 46 419 395V0H815v-152h-12C765-73 660 26 471 26zm31-159c199 0 310-134 310-271v-155c-30 35-226 55-295 64-131 17-246 59-246 186 0 116 97 176 231 176" id="l"/><path d="M158 0v-1118h180V0H158zm91-1301c-68 0-125-53-125-119s57-119 125-119c69 0 126 53 126 119s-57 119-126 119" id="m"/><path d="M338-670V0H158v-1118h173l1 207c72-158 192-221 342-221 226 0 378 139 378 422V0H872v-695c0-172-96-275-252-275-161 0-282 109-282 300" id="n"/><g id="b"><use transform="matrix(0.010850694444444444,0,0,0.010850694444444444,0,0)" xlink:href="#k"/><use transform="matrix(0.010850694444444444,0,0,0.010850694444444444,19.466145833333332,0)" xlink:href="#l"/><use transform="matrix(0.010850694444444444,0,0,0.010850694444444444,31.944444444444443,0)" xlink:href="#m"/><use transform="matrix(0.010850694444444444,0,0,0.010850694444444444,37.326388888888886,0)" xlink:href="#n"/></g><path d="M180 0v-1490h190v644h782v-644h190V0h-190v-678H370V0H180" id="o"/><path d="M180 0v-1490h908v168H370v486h669v168H370v500h727V0H180" id="p"/><path d="M52 0l541-1490h220L1361 0h-200l-149-416H398L254 0H52zm404-582h497c-103-290-145-390-251-756-108 377-145 460-246 756" id="q"/><path d="M645 0H180v-1490h484c435 0 692 280 692 742 0 466-257 748-711 748zM370-168h263c363 0 539-218 539-580 0-358-176-574-521-574H370v1154" id="r"/><g id="c"><use transform="matrix(0.010850694444444444,0,0,0.010850694444444444,0,0)" xlink:href="#o"/><use transform="matrix(0.010850694444444444,0,0,0.010850694444444444,16.514756944444443,0)" xlink:href="#p"/><use transform="matrix(0.010850694444444444,0,0,0.010850694444444444,29.871961805555554,0)" xlink:href="#q"/><use transform="matrix(0.010850694444444444,0,0,0.010850694444444444,45.20399305555556,0)" xlink:href="#r"/></g><path d="M154 0v-137l495-537c165-179 249-281 249-418 0-156-121-253-280-253-170 0-278 110-278 278H158c0-264 200-443 465-443 266 0 455 183 455 416 0 161-73 288-336 568L416-179v12h687V0H154" id="s"/><use transform="matrix(0.010850694444444444,0,0,0.010850694444444444,0,0)" xlink:href="#s" id="d"/><path d="M635 20c-292 0-500-160-510-396h192c11 142 145 229 315 229 187 0 323-105 323-260 0-161-125-274-346-274H488v-165h121c174 0 294-100 294-254 0-148-104-245-266-245-152 0-291 85-297 230H157c8-234 222-395 484-395 278 0 448 188 448 400 0 168-95 291-247 336v12c190 31 301 169 301 357 0 244-216 425-508 425" id="t"/><use transform="matrix(0.010850694444444444,0,0,0.010850694444444444,0,0)" xlink:href="#t" id="e"/><path d="M120-303v-155l652-1032h231v1020h202v167h-202V0H821v-303H120zm702-167v-782h-12L323-482v12h499" id="u"/><path d="M232-923l-22-567h194l-22 567H232" id="v"/><g id="f"><use transform="matrix(0.010850694444444444,0,0,0.010850694444444444,0,0)" xlink:href="#u"/><use transform="matrix(0.010850694444444444,0,0,0.010850694444444444,14.35546875,0)" xlink:href="#v"/></g><path d="M626 20c-262 0-458-168-468-396h184c12 133 134 229 284 229 180 0 311-137 311-326 0-192-136-335-323-335-92 0-196 33-255 78l-178-22 88-738h784v167H429l-51 435h8c61-51 160-87 263-87 273 0 474 211 474 499 0 286-210 496-497 496" id="w"/><g id="g"><use transform="matrix(0.010850694444444444,0,0,0.010850694444444444,0,0)" xlink:href="#w"/><use transform="matrix(0.010850694444444444,0,0,0.010850694444444444,13.509114583333332,0)" xlink:href="#v"/></g><path d="M628 24c-324 0-524-230-524-574 0-343 198-582 503-582 237 0 487 146 487 559v75H286c9 234 145 362 343 362 132 0 231-58 273-172l174 48C1024-91 857 24 628 24zM287-650h624c-17-190-120-322-304-322-192 0-309 151-320 322" id="x"/><path d="M409 0L70-1118h191c89 329 165 560 243 925 75-353 154-601 240-925h192c85 325 161 564 235 922 77-354 157-598 244-922h191L1267 0h-179c-86-307-176-590-250-913C763-588 675-308 588 0H409" id="y"/><path d="M798-719v166H144v-166h654" id="z"/><path d="M677 24c-213 0-288-135-325-197h-20V0H158v-1490h180v551h14c37-59 106-193 324-193 279 0 474 222 474 576 0 356-194 580-473 580zm-27-161c209 0 317-186 317-421 0-232-105-413-317-413-206 0-314 166-314 413 0 249 111 421 314 421" id="A"/><path d="M158 0v-1118h174v172h12c41-113 157-188 290-188 26 0 70 2 91 3v181c-11-2-60-10-108-10-161 0-279 109-279 260V0H158" id="B"/><path d="M613 24c-304 0-509-231-509-576 0-350 205-580 509-580 216 0 392 114 453 309l-173 49c-33-115-133-197-280-197-223 0-326 196-326 419 0 220 103 415 326 415 150 0 252-85 285-206l172 49C1010-95 832 24 613 24" id="C"/><path d="M338-670V0H158v-1490h180v566c73-149 190-208 336-208 226 0 379 139 379 422V0H872v-695c0-172-96-275-252-275-161 0-282 109-282 300" id="D"/><g id="h"><use transform="matrix(0.010850694444444444,0,0,0.010850694444444444,0,0)" xlink:href="#n"/><use transform="matrix(0.010850694444444444,0,0,0.010850694444444444,13.129340277777777,0)" xlink:href="#x"/><use transform="matrix(0.010850694444444444,0,0,0.010850694444444444,25.68359375,0)" xlink:href="#y"/><use transform="matrix(0.010850694444444444,0,0,0.010850694444444444,43.869357638888886,0)" xlink:href="#z"/><use transform="matrix(0.010850694444444444,0,0,0.010850694444444444,54.09071180555556,0)" xlink:href="#A"/><use transform="matrix(0.010850694444444444,0,0,0.010850694444444444,67.69748263888889,0)" xlink:href="#B"/><use transform="matrix(0.010850694444444444,0,0,0.010850694444444444,76.06336805555556,0)" xlink:href="#l"/><use transform="matrix(0.010850694444444444,0,0,0.010850694444444444,88.54166666666667,0)" xlink:href="#n"/><use transform="matrix(0.010850694444444444,0,0,0.010850694444444444,101.67100694444444,0)" xlink:href="#C"/><use transform="matrix(0.010850694444444444,0,0,0.010850694444444444,114.36631944444444,0)" xlink:href="#D"/></g><path d="M646 20c-249 0-524-159-524-708 0-524 209-822 547-822 250 0 431 161 467 395H950c-33-129-126-227-281-227-229 0-367 208-367 566h12c80-124 212-198 367-198 255 0 467 205 467 493 0 278-198 501-502 501zm0-167c179 0 318-148 318-334 0-182-133-328-313-328-181 0-322 156-322 330 0 176 134 332 317 332" id="E"/><g id="i"><use transform="matrix(0.010850694444444444,0,0,0.010850694444444444,0,0)" xlink:href="#E"/><use transform="matrix(0.010850694444444444,0,0,0.010850694444444444,13.780381944444445,0)" xlink:href="#v"/></g></defs></g></svg>